<?xml version="1.0" encoding="UTF-8"?>
<!-- Generator: visioncortex VTracer 0.6.3 -->
<svg version="1.1" xmlns="http://www.w3.org/2000/svg" width="1280" height="965">
<path d="M0 0 C0.73 0.17 1.46 0.34 2.21 0.51 C4.87 0.98 7.01 1.01 9.69 0.81 C27.93 -0.35 45.84 0.56 64.03 1.86 C65.81 1.99 67.59 2.11 69.37 2.23 C80.04 2.98 90.56 4.28 101.12 6 C102.15 6.17 103.18 6.33 104.24 6.5 C105.19 6.67 106.15 6.83 107.13 7 C107.98 7.14 108.82 7.29 109.69 7.44 C112.03 8.01 113.87 8.9 116 10 C118.81 10.45 118.81 10.45 121.75 10.62 C123.23 10.74 123.23 10.74 124.73 10.85 C125.86 10.93 125.86 10.93 127 11 C127 11.66 127 12.32 127 13 C128.01 12.96 129.02 12.92 130.06 12.88 C134.05 13 137.26 13.78 141 15 C143.23 15.69 145.46 16.38 147.69 17.06 C148.78 17.4 149.88 17.75 151.01 18.1 C152.64 18.59 154.28 19.07 155.93 19.47 C159.13 20.29 162.25 21.34 165.38 22.38 C166.02 22.58 166.67 22.79 167.34 23.01 C171.43 24.36 175.15 26.07 179 28 C181.21 28.78 183.44 29.51 185.69 30.19 C186.81 30.53 187.92 30.88 189.07 31.23 C191.98 32.13 191.98 32.13 195 32 C195.66 32.99 196.32 33.98 197 35 C199.6 36.11 202.14 37.09 204.81 38 C209.55 39.65 213.71 41.35 218 44 C221.55 45.56 225.13 47.03 228.72 48.5 C232 50 232 50 234.25 51.69 C236.04 53.3 236.04 53.3 239 53 C239 53.66 239 54.32 239 55 C239.68 55.25 240.36 55.5 241.06 55.75 C244.54 57.23 247.75 59.09 251 61 C252.31 61.75 253.62 62.5 254.94 63.25 C255.95 63.83 256.96 64.41 258 65 C258 65.66 258 66.32 258 67 C258.99 67 259.98 67 261 67 C261 67.66 261 68.32 261 69 C261.56 69.1 262.11 69.21 262.69 69.31 C265.47 70.14 267.55 71.45 270 73 C270.93 73.52 271.86 74.03 272.81 74.56 C273.53 75.04 274.26 75.51 275 76 C275 76.66 275 77.32 275 78 C275.97 78.27 276.94 78.54 277.94 78.81 C278.95 79.2 279.96 79.6 281 80 C281.33 80.99 281.66 81.98 282 83 C282.58 83.14 283.15 83.29 283.75 83.44 C286.85 84.21 288.56 85.96 291 88 C291.99 88.64 292.98 89.28 294 89.94 C297.04 92.03 299.4 94.4 302 97 C302.99 97.33 303.98 97.66 305 98 C306.69 99.44 306.69 99.44 308 101 C308 101.66 308 102.32 308 103 C308.66 103 309.32 103 310 103 C310 103.66 310 104.32 310 105 C310.84 105.09 310.84 105.09 311.69 105.19 C314.94 106.33 316.65 108.53 319 111 C319.66 111.33 320.32 111.66 321 112 C321 112.99 321 113.98 321 115 C322.32 115 323.64 115 325 115 C327.75 117.37 327.75 117.37 330 120 C330 120.66 330 121.32 330 122 C330.96 122.4 330.96 122.4 331.94 122.81 C334 124 334 124 335 127 C335.66 127 336.32 127 337 127 C337 127.66 337 128.32 337 129 C337.99 129 338.98 129 340 129 C340 129.99 340 130.98 340 132 C340.99 132.33 341.98 132.66 343 133 C345.69 135.38 345.69 135.38 348 138 C348 138.99 348 139.98 348 141 C348.84 141.37 348.84 141.37 349.69 141.75 C352.44 143.24 354.69 144.88 357 147 C357 147.99 357 148.98 357 150 C358.32 150.66 359.64 151.32 361 152 C361 152.66 361 153.32 361 154 C361.66 154 362.32 154 363 154 C363 154.99 363 155.98 363 157 C363.99 157 364.98 157 366 157 C367.85 159.63 368.98 161.95 370 165 C370.66 165 371.32 165 372 165 C372 165.66 372 166.32 372 167 C372.99 167.33 373.98 167.66 375 168 C375 169.32 375 170.64 375 172 C375.66 172 376.32 172 377 172 C377 172.66 377 173.32 377 174 C377.66 174 378.32 174 379 174 C379 174.66 379 175.32 379 176 C379.66 176 380.32 176 381 176 C381.19 176.96 381.19 176.96 381.38 177.94 C381.58 178.62 381.79 179.3 382 180 C382.66 180.33 383.32 180.66 384 181 C386.69 183.88 386.69 183.88 389 187 C388.67 187.99 388.34 188.98 388 190 C388.76 190.21 389.53 190.41 390.31 190.62 C393.85 192.44 394.4 194.44 396 198 C396.47 198.45 396.94 198.9 397.43 199.37 C399.41 201.42 400.36 203.54 401.56 206.12 C403.04 209.76 403.04 209.76 406 212 C407.88 215.03 408 216.25 408 220 C408.93 220.37 408.93 220.37 409.88 220.75 C412.42 222.24 413.03 223.25 414 226 C414 227.32 414 228.64 414 230 C414.99 230.33 415.98 230.66 417 231 C418.69 234.56 418.69 234.56 420 238 C420.33 238 420.66 238 421 238 C421 239.65 421 241.3 421 243 C421.99 243.33 422.98 243.66 424 244 C425.96 246.98 426 248.26 426 252 C426.66 252 427.32 252 428 252 C428 253.65 428 255.3 428 257 C428.99 257.33 429.98 257.66 431 258 C432.06 260.31 432.06 260.31 433 263 C433.37 263.66 433.74 264.32 434.12 265 C435.19 267.44 435.15 269.36 435 272 C435.66 272 436.32 272 437 272 C437.28 272.71 437.55 273.42 437.84 274.15 C438.2 275.07 438.56 275.99 438.94 276.94 C439.48 278.31 439.48 278.31 440.03 279.71 C440.8 281.92 440.8 281.92 442 283 C442.04 285 442.04 287 442 289 C442.66 289 443.32 289 444 289 C444.99 292.3 445.98 295.6 447 299 C447.33 299 447.66 299 448 299 C448.25 299.91 448.51 300.81 448.77 301.75 C451.06 309.88 451.06 309.88 453.62 317.94 C453.86 318.64 454.1 319.34 454.34 320.06 C454.56 320.7 454.78 321.34 455 322 C456.87 327.52 457.24 332.24 457 338 C457.66 338 458.32 338 459 338 C466.15 368.23 466.15 368.23 466.06 376.88 C466.05 378.03 466.04 379.18 466.04 380.37 C466.02 381.67 466.02 381.67 466 383 C466.66 383 467.32 383 468 383 C469.32 389.45 468.7 395.49 468 402 C468.66 402 469.32 402 470 402 C470.92 406.67 471.14 411.19 471.11 415.93 C471.11 416.7 471.11 417.48 471.11 418.27 C471.11 420.8 471.11 423.34 471.1 425.87 C471.1 427.63 471.09 429.39 471.09 431.16 C471.09 435.78 471.08 440.41 471.07 445.03 C471.06 449.76 471.05 454.49 471.05 459.21 C471.04 468.47 471.02 477.74 471 487 C470.01 487 469.02 487 468 487 C468 487.99 468 488.98 468 490 C468.66 490 469.32 490 470 490 C469.69 492.96 469.38 495.92 469.06 498.88 C468.98 499.72 468.89 500.56 468.8 501.43 C468.71 502.23 468.62 503.04 468.54 503.87 C468.46 504.61 468.38 505.35 468.3 506.12 C468 508 468 508 467 510 C466.79 512.12 466.63 514.25 466.5 516.38 C466.27 520.07 465.92 523.43 465 527 C464.76 528.32 464.53 529.64 464.32 530.97 C464.19 531.7 464.07 532.44 463.94 533.2 C463.69 534.73 463.44 536.27 463.19 537.8 C462.56 541.57 461.88 544.63 460 548 C459.64 550.33 459.31 552.66 459 555 C458.4 557.69 457.7 560.34 457 563 C456.62 564.5 456.25 566 455.88 567.5 C455.59 568.65 455.3 569.81 455 571 C454.34 571 453.68 571 453 571 C453.05 571.84 453.1 572.67 453.15 573.53 C452.98 577.49 451.95 580.81 450.62 584.5 C450.4 585.14 450.18 585.78 449.95 586.43 C449.31 588.29 448.65 590.15 448 592 C447.33 594 446.66 596 446 598 C445.34 598 444.68 598 444 598 C444.33 598.99 444.66 599.98 445 601 C444.04 603.02 443.03 605.01 442 607 C440.92 609.97 439.95 612.98 439 616 C438.34 616 437.68 616 437 616 C436.81 617.08 436.81 617.08 436.62 618.19 C435.2 624.63 432.37 630.38 429 636 C427.97 638.43 427.01 640.89 426.05 643.35 C424.49 647.29 422.75 651.14 421 655 C420.34 655 419.68 655 419 655 C418.86 655.78 418.71 656.57 418.56 657.38 C418 660 418 660 417 662 C416.34 662 415.68 662 415 662 C414.79 662.76 414.59 663.53 414.38 664.31 C412.04 670.58 408.71 676.44 405 682 C404.34 682 403.68 682 403 682 C402.92 682.54 402.84 683.07 402.75 683.62 C401.74 686.83 399.88 689.23 398 692 C397.67 692.99 397.34 693.98 397 695 C396.34 695 395.68 695 395 695 C394.73 695.76 394.46 696.53 394.19 697.31 C393.05 699.89 392.19 701.27 390 703 C389.34 703 388.68 703 388 703 C387.86 703.78 387.71 704.57 387.56 705.38 C387 708 387 708 386 710 C385.34 710 384.68 710 384 710 C383.77 710.7 383.55 711.4 383.31 712.12 C381.66 715.74 379.71 718.09 377 721 C376.34 721 375.68 721 375 721 C374.92 721.56 374.84 722.11 374.75 722.69 C373.76 725.74 372.15 727.65 370 730 C369.34 730 368.68 730 368 730 C368 730.66 368 731.32 368 732 C367.34 732 366.68 732 366 732 C365.67 732.99 365.34 733.98 365 735 C364.34 734.67 363.68 734.34 363 734 C362.85 735.11 362.85 735.11 362.69 736.25 C361.95 739.22 361.11 740.81 359 743 C358.01 743 357.02 743 356 743 C355.93 743.57 355.85 744.13 355.78 744.71 C354.72 747.82 352.94 749.32 350.56 751.56 C348 754 345.97 756.05 344 759 C343.01 759 342.02 759 341 759 C340.9 759.6 340.79 760.2 340.69 760.81 C339.9 763.31 339.03 764.38 337 766 C336.34 766 335.68 766 335 766 C334.67 766.99 334.34 767.98 334 769 C332.22 770.82 332.22 770.82 330.06 772.69 C329.35 773.31 328.64 773.93 327.91 774.57 C326 776 326 776 324 776 C324 776.99 324 777.98 324 779 C323.01 779 322.02 779 321 779 C320.34 780.32 319.68 781.64 319 783 C318.34 783 317.68 783 317 783 C317 783.66 317 784.32 317 785 C316.01 785 315.02 785 314 785 C313.67 785.99 313.34 786.98 313 788 C310.44 789.19 310.44 789.19 308 790 C308 790.66 308 791.32 308 792 C307.01 792 306.02 792 305 792 C305 792.66 305 793.32 305 794 C302.44 796.3 301.52 797 298 797 C297.79 797.58 297.59 798.15 297.38 798.75 C295.49 801.84 293.04 803.05 290 805 C288.82 805.98 287.65 806.98 286.5 808 C278.49 815 278.49 815 275 815 C274.67 815.99 274.34 816.98 274 818 C271.15 819.83 268.32 820.45 265 821 C264.67 821.99 264.34 822.98 264 824 C263.01 823.67 262.02 823.34 261 823 C260.77 823.6 260.55 824.2 260.31 824.81 C257.39 829.68 252.22 830.67 247 832 C247 832.66 247 833.32 247 834 C245.35 834.33 243.7 834.66 242 835 C242 835.66 242 836.32 242 837 C241.01 837 240.02 837 239 837 C239 837.66 239 838.32 239 839 C235.87 840.86 233.63 841.2 230 841 C230 841.66 230 842.32 230 843 C228.61 843.85 227.21 844.68 225.81 845.5 C225.04 845.96 224.26 846.43 223.46 846.91 C220.76 848.11 218.92 848.21 216 848 C216 848.66 216 849.32 216 850 C198.61 858.86 198.61 858.86 191 860 C190.67 860.66 190.34 861.32 190 862 C187.75 862.82 187.75 862.82 185 863.56 C181.72 864.26 181.72 864.26 179 866 C177 866.04 175 866.04 173 866 C173 866.66 173 867.32 173 868 C168.35 869.89 165.04 871.15 160 871 C159.34 871.66 158.68 872.32 158 873 C153.24 874.74 149.94 875.2 145 874 C144.67 874.99 144.34 875.98 144 877 C141.49 877.95 141.49 877.95 138.31 878.69 C137.28 878.94 136.24 879.19 135.18 879.45 C132.05 879.99 129.16 880.02 126 880 C125.67 880.33 125.34 880.66 125 881 C122.94 881.32 120.88 881.51 118.81 881.72 C116.98 881.82 116.98 881.82 116 883 C113.52 883.28 111.04 883.45 108.54 883.62 C106.01 883.86 106.01 883.86 104 885 C101.55 886.22 99.53 886.37 96.81 886.56 C93.6 886.55 93.6 886.55 91 888 C87.58 888.27 84.16 888.45 80.73 888.61 C77.06 888.46 77.06 888.46 74 890 C71.13 890.15 68.28 890.24 65.41 890.28 C64.54 890.3 63.68 890.32 62.79 890.34 C59.09 890.42 55.39 890.48 51.68 890.55 C48.99 890.6 46.29 890.66 43.59 890.72 C42.33 890.74 42.33 890.74 41.03 890.76 C37.21 890.47 37.21 890.47 34 892 C31.98 892.07 29.96 892.08 27.94 892.06 C26.83 892.05 25.73 892.04 24.59 892.04 C23.31 892.02 23.31 892.02 22 892 C22 891.34 22 890.68 22 890 C7.48 890 -7.04 890 -22 890 C-22 889.67 -22 889.34 -22 889 C-22.93 888.95 -23.86 888.9 -24.82 888.85 C-33.32 888.35 -41.61 887.46 -50 886 C-50 885.01 -50 884.02 -50 883 C-53.96 883.33 -57.92 883.66 -62 884 C-62.33 883.01 -62.66 882.02 -63 881 C-63.57 881.03 -64.14 881.07 -64.73 881.11 C-73.64 881.4 -82.13 879.6 -90.44 876.38 C-93.7 875.12 -96.56 874.48 -100 874 C-103.77 872.74 -107.49 871.33 -111.21 869.94 C-113.8 869.07 -116.31 868.47 -119 868 C-119 867.34 -119 866.68 -119 866 C-119.68 866.06 -120.36 866.12 -121.06 866.19 C-124.07 866 -126.17 865.19 -128.89 863.93 C-133.16 862.05 -137.6 860.57 -142 859 C-142 858.34 -142 857.68 -142 857 C-143.07 857.06 -143.07 857.06 -144.17 857.12 C-147.31 856.99 -149.43 856.23 -152.31 855 C-153.2 854.63 -154.08 854.26 -154.99 853.88 C-155.65 853.59 -156.32 853.3 -157 853 C-157 852.01 -157 851.02 -157 850 C-158.98 850 -160.96 850 -163 850 C-163 849.34 -163 848.68 -163 848 C-163.99 848 -164.98 848 -166 848 C-166 847.34 -166 846.68 -166 846 C-166.87 846.08 -167.73 846.16 -168.62 846.25 C-172.85 845.94 -174.52 844.38 -178 842 C-180.42 840.67 -182.89 839.46 -185.38 838.25 C-186.34 837.78 -186.34 837.78 -187.32 837.29 C-188.88 836.52 -190.44 835.76 -192 835 C-191.67 834.01 -191.34 833.02 -191 832 C-191.99 832.33 -192.98 832.66 -194 833 C-196.41 832.07 -196.41 832.07 -199.06 830.69 C-199.94 830.24 -200.82 829.79 -201.72 829.32 C-204 828 -204 828 -206 826 C-207.66 824.99 -209.33 823.99 -211 823 C-211.9 822.32 -211.9 822.32 -212.81 821.62 C-215.53 819.61 -218.39 817.91 -221.29 816.18 C-223 815 -223 815 -224 813 C-224.7 812.73 -225.4 812.46 -226.12 812.19 C-229.78 810.68 -233.05 808.65 -236 806 C-236 805.34 -236 804.68 -236 804 C-236.99 804 -237.98 804 -239 804 C-239 803.34 -239 802.68 -239 802 C-239.58 801.73 -240.15 801.46 -240.75 801.19 C-243.06 799.97 -245.02 798.7 -247 797 C-247 796.34 -247 795.68 -247 795 C-247.76 794.73 -248.53 794.46 -249.31 794.19 C-251.89 793.05 -253.27 792.19 -255 790 C-255 789.34 -255 788.68 -255 788 C-256.11 787.77 -257.23 787.55 -258.38 787.31 C-259.57 786.88 -260.77 786.45 -262 786 C-263.12 783.5 -263.12 783.5 -264 781 C-266.39 779.89 -266.39 779.89 -269 779 C-271 777.19 -271 777.19 -273 775 C-273.91 774.13 -274.81 773.27 -275.75 772.38 C-278 770 -278 770 -278 768 C-278.56 767.75 -279.11 767.5 -279.69 767.25 C-282.44 765.76 -284.69 764.12 -287 762 C-287 761.01 -287 760.02 -287 759 C-287.66 759 -288.32 759 -289 759 C-289 758.34 -289 757.68 -289 757 C-289.6 756.71 -290.2 756.42 -290.81 756.12 C-293 755 -293 755 -296 753 C-296 752.01 -296 751.02 -296 750 C-297.32 749.34 -298.64 748.68 -300 748 C-300 747.34 -300 746.68 -300 746 C-300.66 746 -301.32 746 -302 746 C-306.94 741.64 -311.18 736.36 -315 731 C-315 730.34 -315 729.68 -315 729 C-315.99 728.67 -316.98 728.34 -318 728 C-318 727.01 -318 726.02 -318 725 C-318.66 725 -319.32 725 -320 725 C-320 724.01 -320 723.02 -320 722 C-320.56 721.81 -321.11 721.63 -321.69 721.44 C-325.03 719.36 -327.05 716.39 -329 713 C-329 712.34 -329 711.68 -329 711 C-329.99 710.67 -330.98 710.34 -332 710 C-333.19 706.94 -333.19 706.94 -334 704 C-334.66 704 -335.32 704 -336 704 C-336 703.01 -336 702.02 -336 701 C-336.66 701 -337.32 701 -338 701 C-341.08 697.02 -343.17 692.65 -345 688 C-345.66 687.67 -346.32 687.34 -347 687 C-348.09 685.58 -349.13 684.11 -350.12 682.62 C-350.93 681.44 -350.93 681.44 -351.76 680.23 C-353 678 -353 678 -353 675 C-353.99 674.67 -354.98 674.34 -356 674 C-356.56 672.06 -356.56 672.06 -357 670 C-357.66 669.34 -358.32 668.68 -359 668 C-360 665.67 -361 663.33 -362 661 C-362.66 660.34 -363.32 659.68 -364 659 C-364.67 657.34 -365.34 655.67 -366 654 C-366.54 653.13 -367.07 652.27 -367.62 651.38 C-369 649 -369 649 -369 646 C-369.66 646 -370.32 646 -371 646 C-371.43 644.76 -371.87 643.52 -372.31 642.25 C-373.21 639.84 -373.95 638.06 -375.5 636 C-377.37 633.51 -378.21 631 -379.25 628.09 C-379.95 626.13 -380.73 624.22 -381.56 622.31 C-382.04 621.22 -382.51 620.13 -383 619 C-383.39 618.11 -383.78 617.23 -384.19 616.31 C-385 614 -385 614 -385 610 C-385.66 610 -386.32 610 -387 610 C-390.48 600.37 -393.82 590.71 -397.06 581 C-397.69 579.12 -397.69 579.12 -398.34 577.21 C-402.67 564.24 -406.29 551.42 -408.56 537.94 C-408.7 537.14 -408.84 536.33 -408.98 535.51 C-409.11 534.73 -409.24 533.95 -409.38 533.15 C-409.5 532.45 -409.62 531.75 -409.74 531.03 C-410 529 -410 529 -410 525 C-410.66 524.67 -411.32 524.34 -412 524 C-412.62 520.94 -412.62 520.94 -413 518 C-413.33 518 -413.66 518 -414 518 C-413.99 517.43 -413.98 516.86 -413.96 516.27 C-413.89 509.2 -413.88 501.99 -415 495 C-415.66 494.67 -416.32 494.34 -417 494 C-416.34 494 -415.68 494 -415 494 C-415.33 493.34 -415.66 492.68 -416 492 C-416.51 488.2 -416.76 484.38 -417.06 480.56 C-417.15 479.44 -417.24 478.32 -417.34 477.17 C-417.92 469.41 -418.18 461.71 -418.01 453.93 C-417.94 450.13 -418.06 446.69 -419 443 C-418.67 443 -418.34 443 -418 443 C-418 431.12 -418 419.24 -418 407 C-417.34 407 -416.68 407 -416 407 C-416.16 406.07 -416.33 405.14 -416.5 404.19 C-417 401 -417 401 -417 398 C-416.34 398 -415.68 398 -415 398 C-414.67 394.7 -414.34 391.4 -414 388 C-414.66 387.67 -415.32 387.34 -416 387 C-415.34 387 -414.68 387 -414 387 C-413.94 386.26 -413.88 385.53 -413.82 384.77 C-413.69 383.31 -413.69 383.31 -413.56 381.81 C-413.48 380.85 -413.4 379.89 -413.32 378.89 C-413.02 376.21 -412.57 373.63 -412 371 C-412.66 370.67 -413.32 370.34 -414 370 C-413.34 369.67 -412.68 369.34 -412 369 C-411.04 366.04 -411.04 366.04 -410.31 362.56 C-410.04 361.39 -409.77 360.21 -409.49 359 C-408.71 356.09 -408.71 356.09 -410 354 C-409.34 354 -408.68 354 -408 354 C-407.67 352.02 -407.34 350.04 -407 348 C-407.66 347.67 -408.32 347.34 -409 347 C-408.01 347 -407.02 347 -406 347 C-406.33 344.03 -406.66 341.06 -407 338 C-406.34 338 -405.68 338 -405 338 C-405 337.03 -405 336.06 -405 335.06 C-405 333.71 -405 332.35 -405 331 C-404.01 330.67 -403.02 330.34 -402 330 C-402.04 328.89 -402.08 327.77 -402.12 326.62 C-402 323 -402 323 -400 321 C-400.33 320.34 -400.66 319.68 -401 319 C-400.34 319 -399.68 319 -399 319 C-399 318.34 -399 317.68 -399 317 C-399.99 317.33 -400.98 317.66 -402 318 C-402 317.34 -402 316.68 -402 316 C-401.01 316 -400.02 316 -399 316 C-398.95 315.36 -398.9 314.72 -398.85 314.07 C-398.78 313.24 -398.7 312.41 -398.62 311.56 C-398.52 310.33 -398.52 310.33 -398.41 309.07 C-398.28 308.38 -398.14 307.7 -398 307 C-397.34 306.67 -396.68 306.34 -396 306 C-395.65 304 -395.32 302 -395 300 C-394.34 299.01 -393.68 298.02 -393 297 C-392.67 296.01 -392.34 295.02 -392 294 C-391.55 292.97 -391.09 291.94 -390.62 290.88 C-388.8 286.68 -387.39 282.36 -386 278 C-385.34 278 -384.68 278 -384 278 C-384 276.02 -384 274.04 -384 272 C-383.34 271.67 -382.68 271.34 -382 271 C-381.39 269.14 -381.39 269.14 -381 267 C-380.56 264.81 -380.56 264.81 -380 263 C-379.34 262.67 -378.68 262.34 -378 262 C-378 260.68 -378 259.36 -378 258 C-377.34 258 -376.68 258 -376 258 C-374.16 253.61 -374.16 253.61 -373 249 C-373.33 248.34 -373.66 247.68 -374 247 C-372.68 247 -371.36 247 -370 247 C-369.9 246.26 -369.79 245.51 -369.69 244.75 C-368.95 241.81 -367.82 240.37 -366 238 C-366 237.01 -366 236.02 -366 235 C-364.67 233.67 -363.33 232.33 -362 231 C-361.32 229.34 -360.65 227.67 -360 226 C-359.3 225.13 -358.6 224.27 -357.88 223.38 C-355.69 221.11 -355.69 221.11 -356 218 C-355.01 217.67 -354.02 217.34 -353 217 C-352.9 216.24 -352.79 215.47 -352.69 214.69 C-351.94 211.78 -351.15 210.96 -349 209 C-349 208.34 -349 207.68 -349 207 C-348.34 206.34 -347.68 205.68 -347 205 C-346.31 203.85 -345.64 202.68 -345 201.5 C-343.78 199.25 -342.84 197.84 -341 196 C-340.67 195.01 -340.34 194.02 -340 193 C-339.34 193 -338.68 193 -338 193 C-336.69 190.47 -335.58 187.96 -334.5 185.31 C-333 182 -333 182 -331 181 C-330.5 180.18 -330.01 179.35 -329.5 178.5 C-328 176 -328 176 -326 175 C-323.97 173.19 -323.97 173.19 -323.12 171.19 C-320.65 166.37 -316.79 162.79 -313 159 C-312.34 158.01 -311.68 157.02 -311 156 C-310.34 156 -309.68 156 -309 156 C-309 155.34 -309 154.68 -309 154 C-308.34 154 -307.68 154 -307 154 C-306.34 151.69 -305.68 149.38 -305 147 C-304.39 146.91 -303.79 146.81 -303.16 146.71 C-300.5 145.83 -299.88 144.89 -298.38 142.56 C-296.2 139.24 -294.93 137.31 -291 136 C-289.19 134.14 -289.19 134.14 -287.44 131.94 C-286.33 130.59 -285.2 129.27 -284 128 C-283.34 128 -282.68 128 -282 128 C-281.63 127.13 -281.63 127.13 -281.25 126.25 C-279.82 123.68 -278.13 122 -276 120 C-275.34 119.34 -274.68 118.68 -274 118 C-272.33 116.67 -270.67 115.33 -269 114 C-268.34 113.34 -267.68 112.68 -267 112 C-265.33 110.33 -263.67 108.67 -262 107 C-261.32 106.28 -260.64 105.56 -259.94 104.81 C-257.17 102.23 -254.56 101.19 -251 100 C-250.27 97.98 -250.27 97.98 -250 96 C-249.01 96 -248.02 96 -247 96 C-246.67 95.34 -246.34 94.68 -246 94 C-245.36 93.88 -244.72 93.75 -244.06 93.62 C-243.38 93.42 -242.7 93.21 -242 93 C-241.57 92.1 -241.57 92.1 -241.12 91.19 C-239.5 88.03 -236.97 86.86 -234 85 C-233.34 84.34 -232.68 83.68 -232 83 C-227.29 79 -227.29 79 -225 79 C-223.28 77.97 -223.28 77.97 -221.5 76.62 C-220.89 76.18 -220.28 75.74 -219.66 75.29 C-217.88 73.96 -217.88 73.96 -216 72 C-214 71 -214 71 -211 70 C-211 69.34 -211 68.68 -211 68 C-209.89 67.55 -208.77 67.09 -207.62 66.62 C-204.04 65.28 -204.04 65.28 -202 63 C-201.01 62.67 -200.02 62.34 -199 62 C-198.53 61.48 -198.05 60.97 -197.56 60.44 C-196 59 -196 59 -192 59 C-191.67 57.68 -191.34 56.36 -191 55 C-190.34 55 -189.68 55 -189 55 C-188.67 54.34 -188.34 53.68 -188 53 C-187.67 53.33 -187.34 53.66 -187 54 C-182.18 52.73 -182.18 52.73 -179 49 C-178.01 49 -177.02 49 -176 49 C-173.88 48.76 -173.88 48.76 -172 48 C-171.67 47.01 -171.34 46.02 -171 45 C-170.11 44.88 -169.23 44.75 -168.31 44.62 C-165.3 44.06 -162.8 43.23 -160 42 C-160 41.34 -160 40.68 -160 40 C-159.34 40 -158.68 40 -158 40 C-157.67 39.34 -157.34 38.68 -157 38 C-157 38.66 -157 39.32 -157 40 C-156.63 39.5 -156.26 39.01 -155.88 38.5 C-153.25 36.4 -151.26 36.78 -148 37 C-148 36.34 -148 35.68 -148 35 C-146.35 35 -144.7 35 -143 35 C-143 34.34 -143 33.68 -143 33 C-142.08 32.71 -142.08 32.71 -141.14 32.41 C-139.92 32.02 -139.92 32.02 -138.69 31.62 C-137.89 31.37 -137.09 31.11 -136.26 30.85 C-133.77 30.01 -133.77 30.01 -131 28 C-129.1 27.47 -127.18 27 -125.25 26.56 C-121.76 25.73 -118.46 24.91 -115.19 23.44 C-111.81 21.91 -108.58 20.95 -105 20 C-105 19.67 -105 19.34 -105 19 C-102.36 19 -99.72 19 -97 19 C-97 18.34 -97 17.68 -97 17 C-95.99 16.88 -94.98 16.75 -93.94 16.62 C-88.28 15.73 -83.39 14.86 -79 11 C-79 11.66 -79 12.32 -79 13 C-77.02 12.72 -75.04 12.43 -73.06 12.12 C-71.96 11.96 -70.86 11.8 -69.72 11.63 C-68.82 11.42 -67.93 11.22 -67 11 C-66.67 10.34 -66.34 9.68 -66 9 C-65.01 9 -64.02 9 -63 9 C-62.34 8.34 -61.68 7.68 -61 7 C-60.67 7.33 -60.34 7.66 -60 8 C-58.1 7.87 -58.1 7.87 -55.85 7.48 C-55.01 7.34 -54.17 7.21 -53.3 7.07 C-52.42 6.92 -51.54 6.78 -50.62 6.62 C-49.75 6.49 -48.87 6.35 -47.97 6.2 C-44.53 5.65 -41.31 5.1 -38 4 C-35.35 3.82 -32.71 3.67 -30.06 3.56 C-20 3.08 -10.01 2.08 0 1 C0 0.67 0 0.34 0 0 Z M397 202 C397 202.66 397 203.32 397 204 C397.66 203.67 398.32 203.34 399 203 C398.34 202.67 397.68 202.34 397 202 Z M432 266 C432 266.99 432 267.98 432 269 C432.66 268.67 433.32 268.34 434 268 C433.34 267.34 432.68 266.68 432 266 Z " fill="#000002" transform="translate(600,30)"/>
<path d="M0 0 C1.2 0 2.4 0 3.63 0 C15.2 0.16 27.76 1.43 37.05 9.13 C37.63 9.73 38.21 10.32 38.81 10.94 C39.71 11.84 39.71 11.84 40.62 12.75 C41.94 14.38 41.94 14.38 41.94 16.38 C42.6 16.38 43.26 16.38 43.94 16.38 C49.95 35.53 49.95 35.53 50.69 45.27 C50.82 47.43 50.82 47.43 51.94 49.38 C52.04 52.29 52.07 55.18 52.07 58.09 C52.07 59.45 52.07 59.45 52.07 60.83 C52.08 63.82 52.07 66.81 52.07 69.81 C52.07 71.88 52.07 73.96 52.07 76.03 C52.07 80.39 52.07 84.74 52.07 89.09 C52.06 94.68 52.07 100.27 52.07 105.86 C52.08 110.14 52.07 114.43 52.07 118.72 C52.07 120.78 52.07 122.84 52.07 124.9 C52.08 127.77 52.07 130.65 52.07 133.53 C52.07 134.38 52.07 135.24 52.07 136.12 C52.06 139.46 52 142.19 50.94 145.38 C56.27 146.4 61.51 147.38 66.94 147.75 C69.83 148.05 70.69 148.18 73 150.06 C74.18 152.98 74.22 155.25 73.94 158.38 C72.08 160.24 69.01 160.02 66.5 160.38 C62.07 160.9 62.07 160.9 57.94 162.38 C56.02 162.42 54.1 162.41 52.19 162.38 C48.89 162.34 46.05 162.35 42.81 163 C38.45 163.57 34.04 163 29.94 161.38 C27.16 157.91 27.49 153.39 27.31 149.12 C27.27 148.38 27.24 147.63 27.2 146.87 C27.1 145.04 27.02 143.21 26.94 141.38 C23.79 141.03 23.79 141.03 21.69 143.5 C20.78 144.45 19.87 145.4 18.94 146.38 C17.11 147.96 15.26 149.51 13.39 151.04 C11.81 152.33 11.81 152.33 10.94 154.38 C8.06 156.12 4.98 157.49 1.94 158.94 C1.11 159.35 0.28 159.76 -0.57 160.19 C-6.14 162.85 -10.91 164.14 -17.06 164.38 C-18.37 164.44 -18.37 164.44 -19.7 164.5 C-22.51 164.61 -25.31 164.66 -28.12 164.69 C-29.07 164.72 -30.01 164.75 -30.98 164.78 C-37.38 164.83 -41.63 163.72 -47.06 160.38 C-48.3 159.72 -48.3 159.72 -49.57 159.06 C-57.08 154.51 -62.22 147.56 -64.44 139 C-64.64 137.8 -64.85 136.61 -65.06 135.38 C-65.27 134.55 -65.47 133.73 -65.69 132.88 C-66.72 126.01 -66.3 119.7 -63.06 113.44 C-62.06 111.38 -61.7 109.67 -61.25 107.44 C-60.27 103.23 -58.28 101.27 -55.06 98.38 C-54.78 97.73 -54.5 97.09 -54.21 96.43 C-52.69 93.7 -50.94 92.75 -48.25 91.19 C-47.4 90.68 -46.55 90.17 -45.67 89.64 C-43.1 88.39 -40.88 87.8 -38.06 87.38 C-38.06 86.38 -38.06 85.39 -38.06 84.38 C-32.5 81.71 -27.13 80.41 -21.06 79.38 C-20.57 77.89 -20.57 77.89 -20.06 76.38 C-9.88 72.78 1.09 72.2 11.79 72.44 C13.92 72.62 13.92 72.62 14.94 71.38 C16.63 71.46 18.32 71.62 20 71.81 C20.92 71.91 21.84 72.02 22.79 72.12 C23.85 72.25 23.85 72.25 24.94 72.38 C24.83 67.96 24.7 63.54 24.56 59.12 C24.53 57.89 24.5 56.66 24.47 55.38 C24.14 45.08 23.35 35.04 19.56 25.38 C18.96 23.8 18.96 23.8 18.35 22.19 C16.89 19.29 15.26 17.59 12.94 15.38 C12.94 14.71 12.94 14.06 12.94 13.38 C3.88 9.65 -3.36 10.1 -12.42 13.71 C-19.08 16.66 -19.08 16.66 -23.06 22.38 C-23.71 22.97 -24.36 23.57 -25.03 24.18 C-27.36 26.69 -27.85 28.25 -28.55 31.58 C-28.76 32.56 -28.97 33.54 -29.19 34.55 C-29.4 35.56 -29.6 36.58 -29.81 37.62 C-30.14 39.17 -30.14 39.17 -30.48 40.75 C-31.02 43.29 -31.55 45.83 -32.06 48.38 C-39.68 50.43 -48.74 50.47 -56.06 47.38 C-58.55 43.64 -58.27 41.63 -58.19 37.19 C-58.17 35.92 -58.15 34.64 -58.13 33.33 C-58.11 32.36 -58.09 31.38 -58.06 30.38 C-57.4 30.38 -56.74 30.38 -56.06 30.38 C-55.94 29.26 -55.81 28.15 -55.69 27 C-55.06 23.38 -55.06 23.38 -53.06 21.38 C-52.79 20.57 -52.53 19.77 -52.25 18.94 C-50.77 15.73 -49.11 15.02 -46.06 13.38 C-45.73 12.71 -45.4 12.06 -45.06 11.38 C-44.4 11.38 -43.74 11.38 -43.06 11.38 C-43.06 10.71 -43.06 10.06 -43.06 9.38 C-41.08 9.05 -39.1 8.71 -37.06 8.38 C-37.06 7.71 -37.06 7.06 -37.06 6.38 C-25.34 3.45 -25.34 3.45 -23.17 2.91 C-21.22 2.41 -19.28 1.84 -17.35 1.27 C-11.65 -0.15 -5.84 -0.01 0 0 Z " fill="#F2F3F5" transform="translate(289.0625,386.625)"/>
<path d="M0 0 C8.51 6.93 13.99 15.25 15.13 26.2 C16.07 37.72 15.98 49.22 15.95 60.78 C15.95 63 15.95 65.22 15.94 67.44 C15.94 73.25 15.93 79.05 15.92 84.85 C15.91 90.79 15.91 96.73 15.9 102.67 C15.89 114.29 15.87 125.91 15.85 137.54 C16.93 137.73 18 137.92 19.11 138.12 C20.54 138.38 21.98 138.65 23.41 138.91 C24.12 139.04 24.82 139.16 25.55 139.29 C30.08 140.13 34.48 141.06 38.85 142.54 C40.21 145.24 39.92 147.54 39.85 150.54 C29.63 153.79 19.27 154.77 8.61 155.29 C4.97 155.53 1.46 155.97 -2.15 156.54 C-5.54 151.98 -5.86 147.7 -6.34 142.22 C-6.42 141.39 -6.5 140.55 -6.58 139.69 C-6.78 137.64 -6.97 135.59 -7.15 133.54 C-11.58 134.38 -13.96 136.9 -17.09 139.97 C-20.55 143.37 -23.51 145.89 -28.15 147.54 C-28.48 148.2 -28.81 148.86 -29.15 149.54 C-39.07 156.37 -49.5 157.25 -61.21 157.29 C-61.89 157.29 -62.58 157.3 -63.28 157.31 C-71.5 157.38 -77.02 157.24 -83.15 151.54 C-83.97 151.1 -84.8 150.67 -85.65 150.22 C-92.16 145.83 -95.99 140.38 -97.72 132.73 C-99.01 123.09 -98.44 113.15 -97.15 103.54 C-96.49 103.54 -95.83 103.54 -95.15 103.54 C-95 102.54 -95 102.54 -94.85 101.52 C-93.96 96.26 -93.27 92.28 -89.15 88.54 C-88.16 88.54 -87.17 88.54 -86.15 88.54 C-86.06 87.92 -85.98 87.31 -85.89 86.68 C-85.15 84.54 -85.15 84.54 -83.41 83.27 C-82.35 82.78 -82.35 82.78 -81.27 82.29 C-80.23 81.78 -80.23 81.78 -79.16 81.27 C-77.15 80.54 -77.15 80.54 -74.15 80.54 C-73.96 79.94 -73.78 79.34 -73.59 78.72 C-71.11 74.95 -67.03 73.95 -62.79 73.01 C-61.25 72.71 -59.71 72.42 -58.16 72.16 C-55.76 71.41 -54.9 70.31 -53.15 68.54 C-40.8 62.5 -24.51 64.3 -11.15 64.54 C-11.09 60.29 -11.05 56.04 -11.02 51.79 C-11 50 -11 50 -10.97 48.19 C-10.94 41.31 -11.38 34.86 -12.7 28.11 C-13.13 25.67 -13.26 23.38 -13.27 20.91 C-13.85 15 -17.94 10.47 -22.15 6.54 C-24.29 5.71 -24.29 5.71 -26.15 5.54 C-26.15 4.88 -26.15 4.22 -26.15 3.54 C-37.57 2.53 -45.58 3.93 -55.15 10.54 C-59.04 14.79 -61.03 19.25 -63.15 24.54 C-63.52 25.48 -63.9 26.42 -64.29 27.39 C-66.04 31.96 -67.4 35.58 -67.15 40.54 C-72.18 43.05 -81.2 42.25 -86.62 40.93 C-89.26 39.82 -91.12 38.56 -93.15 36.54 C-94.8 30.2 -93.94 23.79 -92.15 17.54 C-90.7 15.68 -90.7 15.68 -89.15 14.54 C-88.49 14.54 -87.83 14.54 -87.15 14.54 C-86.78 13.08 -86.78 13.08 -86.4 11.6 C-85.99 10.59 -85.57 9.58 -85.15 8.54 C-83.02 7.66 -83.02 7.66 -81.15 7.54 C-81.15 6.88 -81.15 6.22 -81.15 5.54 C-80.16 5.21 -79.17 4.88 -78.15 4.54 C-77.51 3.71 -76.87 2.89 -76.21 2.04 C-74.15 -0.46 -74.15 -0.46 -72.09 -1.34 C-70.15 -1.46 -70.15 -1.46 -67.15 -0.46 C-66.82 -1.45 -66.49 -2.44 -66.15 -3.46 C-63.61 -3.94 -61.07 -4.42 -58.52 -4.9 C-57.81 -5.04 -57.1 -5.17 -56.36 -5.31 C-54.95 -5.58 -53.53 -5.84 -52.11 -6.1 C-50.47 -6.41 -48.83 -6.73 -47.19 -7.05 C-32.08 -9.11 -12.95 -8.83 0 0 Z " fill="#F2F3F5" transform="translate(478.1484375,394.46484375)"/>
<path d="M0 0 C0.79 -0.06 1.58 -0.11 2.39 -0.17 C3.12 -0.23 3.84 -0.29 4.59 -0.36 C6.7 0.27 6.7 0.27 8.96 2.71 C11.17 7.23 11.13 10.58 10.89 15.52 C10.41 21.05 10.41 21.05 11.7 26.27 C12.08 25.78 12.46 25.3 12.85 24.8 C17.1 19.61 21.73 15.83 27.25 12.03 C29.67 10.4 29.67 10.4 31.31 8.58 C34.22 5.83 38.9 6.27 42.7 6.27 C43.03 5.61 43.36 4.95 43.7 4.27 C55.74 1.46 73.38 1.42 84.7 6.27 C92.06 11.12 96.77 17.49 100.7 25.27 C101.04 25.88 101.38 26.5 101.73 27.14 C103.81 31.28 103.94 34.84 103.71 39.35 C103.56 41.35 103.56 41.35 104.7 43.27 C104.8 44.74 104.83 46.21 104.83 47.68 C104.84 48.6 104.84 49.51 104.84 50.45 C104.84 51.94 104.84 51.94 104.84 53.45 C104.84 54.47 104.84 55.48 104.84 56.52 C104.84 58.67 104.84 60.81 104.83 62.96 C104.83 66.25 104.83 69.54 104.84 72.84 C104.84 74.92 104.84 77 104.84 79.08 C104.84 80.07 104.84 81.06 104.84 82.08 C104.84 83.45 104.84 83.45 104.83 84.85 C104.83 85.65 104.83 86.46 104.83 87.29 C104.7 89.27 104.7 89.27 103.7 91.27 C103.61 93.05 103.59 94.84 103.59 96.63 C103.59 97.75 103.59 98.88 103.59 100.03 C103.59 101.24 103.6 102.46 103.61 103.71 C103.61 104.95 103.61 106.19 103.61 107.47 C103.61 110.77 103.62 114.06 103.63 117.36 C103.64 120.73 103.65 124.09 103.65 127.46 C103.67 134.06 103.68 140.66 103.7 147.27 C104.78 147.41 105.85 147.56 106.96 147.71 C110.92 148.3 114.71 149.14 118.58 150.14 C119.59 150.38 119.59 150.38 120.62 150.63 C122.57 151.13 122.57 151.13 125.7 152.27 C126.03 153.26 126.36 154.25 126.7 155.27 C127.36 155.27 128.02 155.27 128.7 155.27 C127.83 161.14 127.83 161.14 126.7 162.27 C124.47 162.37 122.24 162.4 120.01 162.41 C119.31 162.41 118.61 162.42 117.89 162.42 C115.57 162.43 113.25 162.43 110.93 162.43 C109.32 162.44 107.71 162.44 106.1 162.44 C102.73 162.45 99.35 162.45 95.98 162.45 C91.64 162.45 87.31 162.46 82.98 162.48 C79.66 162.49 76.33 162.49 73.01 162.49 C71.41 162.5 69.82 162.5 68.22 162.51 C65.99 162.52 63.76 162.51 61.52 162.51 C59.62 162.51 59.62 162.51 57.67 162.51 C54.7 162.27 54.7 162.27 52.7 160.27 C52.89 157.27 52.89 157.27 53.7 154.27 C56.7 152.27 56.7 152.27 59.27 151.77 C61.87 151.46 61.87 151.46 63.7 149.27 C65.76 149.11 65.76 149.11 68.14 149.2 C71.14 149.32 72.8 149.23 75.7 148.27 C76.61 136.35 76.87 124.51 76.87 112.57 C76.87 110.71 76.88 108.86 76.88 107.01 C76.89 103.16 76.89 99.31 76.89 95.46 C76.89 90.56 76.9 85.65 76.92 80.75 C76.93 76.94 76.93 73.13 76.93 69.31 C76.93 67.51 76.94 65.7 76.95 63.89 C77.47 42.04 77.47 42.04 67.7 23.27 C62.66 19.44 57.43 17.53 51.09 17.89 C46.52 18.61 42.11 19.88 37.7 21.27 C37.7 21.93 37.7 22.59 37.7 23.27 C36.57 23.6 35.43 23.93 34.27 24.27 C25.01 27.78 18.22 36.34 12.7 44.27 C12.37 45.26 12.04 46.25 11.7 47.27 C10.7 48.06 10.7 48.06 9.67 48.88 C6.68 52.5 7.13 55.88 7.16 60.44 C7.15 61.37 7.14 62.29 7.13 63.25 C7.1 66.31 7.09 69.37 7.09 72.44 C7.08 74.56 7.06 76.69 7.04 78.81 C7 84.4 6.98 89.99 6.96 95.58 C6.95 101.28 6.9 106.99 6.86 112.69 C6.79 123.88 6.74 135.07 6.7 146.27 C7.5 146.46 8.3 146.66 9.13 146.87 C10.72 147.26 10.72 147.26 12.35 147.67 C13.4 147.93 14.44 148.19 15.52 148.46 C25.58 151.01 25.58 151.01 28.7 152.27 C30.31 155.48 29.76 158.7 29.7 162.27 C20.53 162.34 11.36 162.39 2.19 162.42 C-2.07 162.44 -6.33 162.46 -10.59 162.49 C-14.7 162.52 -18.81 162.54 -22.92 162.55 C-24.48 162.56 -26.05 162.57 -27.62 162.58 C-29.82 162.6 -32.01 162.61 -34.21 162.61 C-35.46 162.61 -36.71 162.62 -38 162.63 C-41.54 162.24 -43.43 161.32 -46.3 159.27 C-46 155.95 -45.72 153.81 -43.65 151.14 C-40.71 148.8 -38.63 148.48 -34.92 148.02 C-33.27 147.79 -33.27 147.79 -31.59 147.56 C-28.47 147.28 -25.43 147.21 -22.3 147.27 C-22.34 146.19 -22.38 145.12 -22.42 144.02 C-22.3 140.27 -22.3 140.27 -21.3 138.33 C-20.12 135.9 -20.05 134.26 -20.04 131.56 C-20.04 130.62 -20.03 129.68 -20.03 128.7 C-20.03 127.68 -20.03 126.65 -20.04 125.59 C-20.03 124.51 -20.03 123.42 -20.03 122.3 C-20.02 118.71 -20.02 115.11 -20.03 111.52 C-20.03 109.02 -20.03 106.52 -20.03 104.03 C-20.02 98.8 -20.03 93.56 -20.04 88.33 C-20.05 82.29 -20.04 76.24 -20.03 70.19 C-20.02 64.37 -20.02 58.55 -20.03 52.73 C-20.03 50.26 -20.03 47.78 -20.02 45.31 C-20.02 41.85 -20.03 38.39 -20.04 34.94 C-20.03 33.91 -20.03 32.88 -20.03 31.83 C-20.03 30.88 -20.04 29.94 -20.04 28.97 C-20.04 28.15 -20.04 27.34 -20.05 26.5 C-20.33 24 -20.96 22.39 -22.3 20.27 C-24.15 19.48 -24.15 19.48 -26.32 19.29 C-27.12 19.18 -27.91 19.06 -28.72 18.95 C-29.97 18.79 -29.97 18.79 -31.23 18.64 C-32.87 18.43 -34.5 18.2 -36.14 17.98 C-36.86 17.89 -37.59 17.8 -38.34 17.7 C-40.3 17.27 -40.3 17.27 -43.3 15.27 C-43 12.01 -42.56 9.7 -40.86 6.89 C-37.34 4.66 -34.52 5 -30.44 5.22 C-29.38 5.24 -29.38 5.24 -28.3 5.27 C-27.97 4.94 -27.64 4.61 -27.3 4.27 C-25.78 4.27 -24.25 4.32 -22.73 4.39 C-18.31 4.45 -15.19 3.71 -11.16 2 C-7.54 0.57 -3.83 0.44 0 0 Z " fill="#F3F4F6" transform="translate(870.296875,385.734375)"/>
<path d="M0 0 C7.72 5.65 14.11 13.24 17.57 22.2 C18.18 23.75 18.82 25.28 19.5 26.8 C22.36 33.35 23.52 39.57 24.26 46.66 C24.44 48.29 24.44 48.29 24.63 49.96 C25.82 61.38 26.85 72.48 23.51 83.59 C23.53 84.71 23.55 85.82 23.57 86.97 C23.51 90.8 22.73 93.43 21.44 96.99 C20.34 100.08 19.36 103.21 18.39 106.34 C18.05 107.41 17.72 108.48 17.38 109.58 C16.47 112.53 16.47 112.53 16.03 115.34 C15.24 118.77 13.06 120.21 10.51 122.59 C9.49 123.91 8.47 125.22 7.45 126.53 C1.86 132.82 -4.64 136.38 -13.07 137.14 C-22.9 137.6 -30.79 136.45 -39.49 131.59 C-39.49 130.93 -39.49 130.27 -39.49 129.59 C-40.09 129.34 -40.68 129.08 -41.3 128.82 C-49.82 124.04 -53.54 111.76 -56.54 103.11 C-57.46 100.45 -57.46 100.45 -59.18 97.66 C-60.94 93.54 -61.05 89.64 -61.28 85.2 C-61.32 82.61 -61.32 82.61 -62.49 80.59 C-62.73 76.56 -62.67 72.51 -62.68 68.47 C-62.69 67.35 -62.7 66.24 -62.71 65.09 C-62.72 58.84 -62.19 53.58 -60.49 47.59 C-60.31 45.66 -60.18 43.72 -60.11 41.78 C-59.08 28.21 -51.69 13.44 -41.62 4.21 C-29.47 -4.97 -13.65 -7.71 0 0 Z " fill="#000002" transform="translate(750.48828125,402.40625)"/>
<path d="M0 0 C4.62 4.21 9 8.78 12.88 13.69 C12.88 14.35 12.88 15.01 12.88 15.69 C13.53 15.69 14.19 15.69 14.88 15.69 C28.98 43.04 30.8 70.36 23.46 100.14 C22.8 102.58 22.8 102.58 22.88 104.69 C22.22 104.69 21.56 104.69 20.88 104.69 C20.59 105.41 20.31 106.13 20.02 106.88 C17.14 113.94 13.93 119.97 8.88 125.69 C8.4 126.57 7.93 127.46 7.44 128.38 C5.4 131.39 3.11 132.14 -0.12 133.69 C-0.55 134.3 -0.98 134.92 -1.42 135.55 C-7.89 143.64 -21.53 146.19 -31.12 147.69 C-32.3 147.87 -33.47 148.06 -34.68 148.25 C-39.85 148.91 -44.92 148.81 -50.12 148.69 C-51.08 148.69 -52.03 148.7 -53 148.71 C-61.74 148.46 -68.69 145.26 -76.42 141.5 C-77.77 140.86 -79.15 140.26 -80.54 139.69 C-89.86 135.71 -97.81 127.17 -103.12 118.69 C-103.71 117.76 -104.3 116.82 -104.9 115.86 C-109.86 107.35 -112.07 99.23 -114.12 89.69 C-114.48 88.49 -114.84 87.29 -115.21 86.05 C-116.69 80.19 -116.41 74.19 -116.38 68.19 C-116.38 67 -116.39 65.82 -116.4 64.6 C-116.38 58.26 -116 52.75 -114.12 46.69 C-113.92 45.92 -113.71 45.16 -113.49 44.37 C-113.33 43.77 -113.17 43.18 -113 42.56 C-112.22 39.1 -111.95 36.22 -112.12 32.69 C-111.47 32.69 -110.8 32.69 -110.12 32.69 C-110.06 31.39 -110 30.09 -109.94 28.75 C-109.35 23.36 -107.31 19.05 -104.12 14.69 C-103.13 14.03 -102.14 13.37 -101.12 12.69 C-100.67 11.72 -100.22 10.75 -99.75 9.75 C-97.91 6.28 -96.46 5.57 -93.12 3.69 C-92.43 2.37 -91.76 1.04 -91.12 -0.31 C-88.52 -2.66 -87.7 -3.31 -84.12 -3.31 C-84.12 -3.97 -84.12 -4.63 -84.12 -5.31 C-83.47 -5.31 -82.8 -5.31 -82.12 -5.31 C-82.12 -5.97 -82.12 -6.63 -82.12 -7.31 C-80.69 -7.96 -79.25 -8.61 -77.81 -9.25 C-77.01 -9.61 -76.21 -9.97 -75.39 -10.34 C-71.78 -11.89 -69.88 -12.48 -66.12 -11.31 C-65.79 -11.97 -65.47 -12.63 -65.12 -13.31 C-62.64 -13.8 -60.26 -14.16 -57.75 -14.44 C-56.66 -14.56 -56.66 -14.56 -55.54 -14.69 C-34.85 -16.93 -16.2 -13.59 0 0 Z M-68.12 4.69 C-68.71 5.23 -69.29 5.77 -69.89 6.32 C-77.53 14.25 -83.86 25.72 -85.12 36.69 C-85.29 38.03 -85.47 39.38 -85.64 40.72 C-85.91 42.91 -86.18 45.09 -86.43 47.28 C-87.02 52.48 -87.02 52.48 -88.12 54.69 C-88.22 56.5 -88.26 58.32 -88.26 60.14 C-88.26 61.24 -88.26 62.33 -88.26 63.46 C-88.26 64.61 -88.25 65.75 -88.25 66.94 C-88.25 68.07 -88.26 69.2 -88.26 70.37 C-88.26 71.47 -88.26 72.57 -88.26 73.7 C-88.26 74.71 -88.26 75.71 -88.25 76.74 C-88.12 79.8 -87.68 82.68 -87.12 85.69 C-87.01 86.48 -86.89 87.26 -86.77 88.07 C-85.79 93.84 -83.96 98.69 -81.42 103.95 C-80.17 106.6 -79.1 109.26 -78.06 112 C-75.53 118.41 -71.72 123.6 -67.12 128.69 C-66.47 128.69 -65.8 128.69 -65.12 128.69 C-65.12 129.35 -65.12 130.01 -65.12 130.69 C-55.23 136.22 -45.27 137.33 -34.12 135.69 C-26.22 133.41 -20.93 129.2 -15.84 122.84 C-14.12 120.69 -14.12 120.69 -12 118.76 C-9.72 116.24 -9.3 114.44 -8.62 111.12 C-7.68 106.87 -6.55 102.88 -5 98.81 C-3.29 94.27 -2.06 90.15 -2.19 85.25 C-2.12 82.69 -2.12 82.69 -1.14 79.49 C1.73 68.74 -0.16 56.66 -1.38 45.75 C-1.48 44.71 -1.59 43.67 -1.71 42.59 C-2.54 35.75 -4.26 29.95 -7.12 23.69 C-7.58 22.62 -8.04 21.54 -8.51 20.44 C-12.8 11.36 -18.9 2.3 -28.12 -2.31 C-30.43 -2.96 -32.72 -3.48 -35.07 -3.92 C-37.12 -4.31 -37.12 -4.31 -40.12 -5.31 C-50.63 -6.27 -60.45 -2.45 -68.12 4.69 Z " fill="#F3F4F6" transform="translate(776.125,403.3125)"/>
<path d="M0 0 C2.32 3.49 2.3 5.07 2.41 9.2 C2.47 11.01 2.47 11.01 2.53 12.86 C2.56 14.12 2.59 15.39 2.62 16.69 C2.68 18.6 2.68 18.6 2.74 20.55 C2.84 23.7 2.92 26.85 3 30 C6.03 30.3 6.03 30.3 8.06 28.44 C10.23 26.06 10.23 26.06 10.79 22.71 C12.16 18.5 14.21 16.18 17.38 13.25 C17.86 12.78 18.34 12.31 18.84 11.83 C23.43 7.42 26.59 4.9 32.88 3.54 C34.96 3.01 36.73 2.26 38.69 1.38 C45.14 -1.14 52.62 -0.79 59.27 0.77 C62 2 62 2 63.36 3.78 C65.69 11.87 63.77 20.96 62 29 C58.53 28.54 55.33 28.11 52 27 C44.43 26.55 37.26 26.79 30 29 C29.12 29.26 28.23 29.51 27.32 29.78 C17.23 33.03 9.48 38.84 4 48 C1.64 52.62 1.69 56.85 1.68 61.92 C1.67 63.25 1.67 63.25 1.65 64.61 C1.62 67.54 1.6 70.47 1.59 73.39 C1.57 75.43 1.55 77.46 1.53 79.49 C1.48 84.84 1.44 90.18 1.4 95.53 C1.36 100.98 1.31 106.44 1.26 111.9 C1.16 122.6 1.08 133.3 1 144 C3.68 144.48 6.36 144.96 9.04 145.44 C9.78 145.57 10.53 145.71 11.3 145.85 C17.04 146.87 22.77 147.68 28.56 148.38 C31 149 31 149 33 152 C33.19 155.12 33.19 155.12 33 158 C31.3 159.7 29.16 159.13 26.88 159.14 C26.15 159.13 25.42 159.13 24.67 159.13 C23.52 159.13 23.52 159.13 22.34 159.13 C19.79 159.14 17.24 159.14 14.69 159.13 C12.93 159.13 11.16 159.13 9.4 159.14 C5.69 159.14 1.99 159.14 -1.72 159.13 C-6.47 159.12 -11.23 159.13 -15.99 159.13 C-19.63 159.14 -23.28 159.14 -26.93 159.13 C-28.68 159.13 -30.43 159.13 -32.19 159.14 C-34.64 159.14 -37.09 159.13 -39.54 159.13 C-40.27 159.13 -41 159.13 -41.75 159.14 C-46.77 159.11 -46.77 159.11 -49 158 C-49.32 154.53 -49.42 152.62 -47.44 149.69 C-44.33 147.54 -41.72 147.41 -38 147 C-37.01 146.01 -37.01 146.01 -36 145 C-33.62 144.8 -33.62 144.8 -30.88 144.88 C-29.96 144.89 -29.05 144.91 -28.12 144.93 C-27.42 144.95 -26.72 144.98 -26 145 C-25.93 128.9 -25.88 112.8 -25.84 96.7 C-25.83 89.23 -25.81 81.75 -25.77 74.28 C-25.74 67.77 -25.72 61.25 -25.72 54.74 C-25.71 51.29 -25.7 47.84 -25.68 44.39 C-25.66 40.54 -25.66 36.69 -25.66 32.84 C-25.65 31.69 -25.64 30.55 -25.63 29.37 C-25.63 28.32 -25.63 27.27 -25.64 26.19 C-25.64 24.82 -25.64 24.82 -25.63 23.43 C-26.08 20.47 -26.9 19.12 -29 17 C-31.73 16.43 -34.18 16.08 -36.94 15.88 C-45.61 15.14 -45.61 15.14 -49 13 C-48.25 6.25 -48.25 6.25 -46 4 C-43.67 3.63 -41.34 3.3 -39 3 C-38.67 2.67 -38.34 2.34 -38 2 C-35.29 1.98 -32.59 2.01 -29.88 2.06 C-22.46 2.15 -15.47 1.6 -8.14 0.44 C-2.76 -0.31 -2.76 -0.31 0 0 Z " fill="#F3F4F6" transform="translate(580,388)"/>
<path d="M0 0 C2.06 3.08 2.27 3.87 2.37 7.38 C2.4 8.26 2.43 9.14 2.46 10.05 C2.48 11 2.49 11.95 2.51 12.93 C2.53 13.91 2.55 14.89 2.57 15.9 C2.6 17.97 2.63 20.05 2.65 22.12 C2.67 24.24 2.72 26.37 2.79 28.49 C2.89 31.55 2.92 34.61 2.95 37.68 C2.99 38.62 3.03 39.56 3.07 40.54 C3.04 44.59 3 47.01 0.04 49.94 C-3.21 52.16 -6.27 53.76 -10 55 C-10.14 55.65 -10.27 56.3 -10.41 56.96 C-10.6 57.64 -10.8 58.31 -11 59 C-13 59.94 -13 59.94 -15.44 60.56 C-19.46 61.57 -19.46 61.57 -22 65 C-23.99 65.48 -23.99 65.48 -26.31 65.62 C-28.75 65.8 -31.06 66.01 -33.46 66.5 C-40.39 67.86 -47.07 67.88 -53.28 64.27 C-57.76 60.96 -60.15 57.56 -61 52 C-62.35 41.58 -62.48 32.27 -57 23 C-56.38 21.91 -55.76 20.81 -55.12 19.69 C-52.66 16.56 -51.76 16.59 -48 16 C-47.69 15.38 -47.39 14.75 -47.07 14.11 C-45.21 10.45 -41.7 9.41 -38 8 C-35.74 7.44 -33.49 7 -31.2 6.56 C-28.94 5.98 -27.27 5.16 -25.25 4 C-17.96 0.09 -8.17 -0.77 0 0 Z " fill="#020204" transform="translate(312,468)"/>
<path d="M0 0 C1.57 1.57 1.17 3.14 1.22 5.32 C1.25 6.24 1.27 7.15 1.29 8.1 C1.36 12.32 1.42 16.55 1.46 20.77 C1.49 23 1.53 25.22 1.58 27.45 C1.66 30.65 1.7 33.86 1.72 37.07 C1.75 38.06 1.78 39.05 1.82 40.07 C1.8 45.31 1.33 48.31 -2.36 52.18 C-4.9 54.49 -5.47 55 -9 55 C-9 55.66 -9 56.32 -9 57 C-10.38 57.46 -11.75 57.92 -13.12 58.38 C-13.94 58.65 -14.76 58.93 -15.6 59.21 C-17.55 59.85 -19.52 60.44 -21.5 61 C-22.32 61.33 -23.15 61.66 -24 62 C-24.33 62.99 -24.66 63.98 -25 65 C-25.95 64.96 -26.9 64.92 -27.88 64.88 C-31.1 64.65 -31.1 64.65 -33 67 C-40.88 68.07 -48.07 66.93 -55 63 C-59.75 59.14 -61.25 51.87 -62 46 C-62.26 40.11 -61.59 35.45 -59.75 29.88 C-59.55 29.2 -59.34 28.52 -59.13 27.82 C-57.69 23.33 -55.97 19.69 -53 16 C-52.01 16 -51.02 16 -50 16 C-50 15.34 -50 14.68 -50 14 C-39.65 5.2 -13.56 -4.95 0 0 Z " fill="#030305" transform="translate(467,469)"/>
<path d="M0 0 C4.14 2.46 7.06 4.81 8.69 9.44 C9.65 15.66 10.6 22.49 7.03 28 C1.75 32.74 -2.4 33.44 -9.31 33.44 C-10.14 33.68 -10.96 33.93 -11.81 34.19 C-15.72 34.58 -17.33 32.88 -20.31 30.44 C-21.16 29.76 -21.16 29.76 -22.03 29.07 C-25.87 25.44 -26.82 22.32 -27.12 17.06 C-26.8 10.09 -24.31 6.15 -19.31 1.44 C-14.02 -3.29 -6.24 -2.74 0 0 Z " fill="#F3F4F6" transform="translate(1042.3125,517.5625)"/>
<path d="M0 0 C0.99 0.33 1.98 0.66 3 1 C2.01 2.49 2.01 2.49 1 4 C0.62 5.66 0.27 7.32 0 9 C0.88 9.1 0.88 9.1 1.77 9.2 C4.43 9.5 7.09 9.85 9.75 10.19 C10.67 10.29 11.59 10.39 12.54 10.49 C13.87 10.67 13.87 10.67 15.23 10.86 C16.05 10.95 16.87 11.05 17.71 11.16 C21.16 12.43 22.1 13.81 24 17 C24.59 20.8 24.52 24.57 24.47 28.41 C24.47 29.57 24.47 30.72 24.48 31.91 C24.48 35.72 24.45 39.53 24.43 43.34 C24.42 45.99 24.42 48.64 24.42 51.29 C24.41 56.84 24.39 62.39 24.36 67.94 C24.32 75.06 24.3 82.18 24.29 89.3 C24.28 96.09 24.26 102.87 24.24 109.66 C24.23 110.95 24.23 112.25 24.23 113.59 C24.22 117.25 24.2 120.92 24.18 124.59 C24.17 125.67 24.17 126.76 24.17 127.88 C24.16 128.88 24.15 129.88 24.15 130.91 C24.14 132.21 24.14 132.21 24.13 133.54 C23.99 136.11 23.56 138.49 23 141 C22.01 140.67 21.02 140.34 20 140 C20 99.41 20 58.82 20 17 C15.37 15.46 13.05 14.81 8.5 14.69 C4.83 14.4 2.25 14.01 -0.75 11.81 C-3 9 -3 9 -3 5.88 C-2 3 -2 3 0 0 Z " fill="#737475" transform="translate(531,392)"/>
<path d="M0 0 C2.58 0.09 5.17 0.19 7.75 0.31 C8.84 0.35 8.84 0.35 9.96 0.38 C13.12 0.54 15.63 0.81 18.46 2.26 C20.36 4.4 20.61 5.67 20.81 8.5 C20.88 9.27 20.95 10.05 21.02 10.84 C21 13 21 13 20 16 C16.44 17.19 13.2 17.16 9.49 17.16 C8.72 17.17 7.96 17.17 7.17 17.18 C4.65 17.19 2.13 17.2 -0.4 17.2 C-2.15 17.21 -3.91 17.21 -5.66 17.22 C-9.34 17.23 -13.02 17.24 -16.7 17.24 C-21.42 17.25 -26.13 17.27 -30.84 17.3 C-34.47 17.32 -38.09 17.32 -41.72 17.32 C-43.46 17.33 -45.2 17.33 -46.93 17.35 C-49.36 17.36 -51.8 17.36 -54.23 17.36 C-54.94 17.37 -55.66 17.37 -56.4 17.38 C-60.75 17.35 -63.58 16.74 -67 14 C-67.99 10.91 -68.27 8.94 -67.38 5.81 C-65.49 3.32 -63.86 2.27 -61 1 C-57.19 0.81 -57.19 0.81 -54 1 C-53.67 1.66 -53.34 2.32 -53 3 C-55.97 3.66 -58.94 4.32 -62 5 C-62.66 7.64 -63.32 10.28 -64 13 C-37.27 13 -10.54 13 17 13 C17.45 7.52 17.45 7.52 16 5 C13.14 4.36 10.33 3.83 7.44 3.38 C6.63 3.24 5.82 3.11 4.99 2.97 C3 2.64 1 2.32 -1 2 C-0.67 1.34 -0.34 0.68 0 0 Z " fill="#747576" transform="translate(595,533)"/>
<path d="M0 0 C0.99 0 1.98 0 3 0 C5.2 12.65 5.26 25.09 5.2 37.9 C5.19 40.08 5.19 42.25 5.19 44.43 C5.18 50.11 5.16 55.78 5.14 61.46 C5.12 67.27 5.11 73.08 5.1 78.9 C5.08 90.26 5.04 101.63 5 113 C6.65 113.66 8.3 114.32 10 115 C10 115.33 10 115.66 10 116 C6.28 116.2 5.23 116.15 2 114 C1.69 110.87 1.57 107.94 1.58 104.82 C1.57 103.39 1.57 103.39 1.56 101.93 C1.53 98.76 1.53 95.59 1.52 92.42 C1.51 90.22 1.49 88.01 1.48 85.8 C1.43 79.98 1.41 74.15 1.39 68.32 C1.35 59.04 1.29 49.75 1.23 40.47 C1.21 37.24 1.2 34.01 1.19 30.78 C1.14 20.48 0.97 10.27 0 0 Z " fill="#737475" transform="translate(492,418)"/>
<path d="M0 0 C0 33 0 66 0 99 C-1.32 98.67 -2.64 98.34 -4 98 C-5.18 93.37 -5.11 88.94 -5.05 84.2 C-5.05 83.33 -5.04 82.45 -5.03 81.55 C-5.01 78.66 -4.98 75.78 -4.95 72.89 C-4.93 70.89 -4.91 68.88 -4.89 66.88 C-4.85 62.68 -4.81 58.48 -4.76 54.28 C-4.7 48.89 -4.65 43.5 -4.61 38.11 C-4.57 33.97 -4.53 29.83 -4.48 25.69 C-4.46 23.7 -4.44 21.71 -4.43 19.73 C-4.41 16.95 -4.37 14.18 -4.33 11.41 C-4.33 10.58 -4.33 9.76 -4.32 8.9 C-4.23 3.23 -4.23 3.23 -2 1 C-1.34 0.67 -0.68 0.34 0 0 Z " fill="#737475" transform="translate(881,434)"/>
<path d="M0 0 C5.9 4.92 6.32 11.74 7 19 C7.13 21.82 7.14 24.63 7.13 27.46 C7.13 28.26 7.13 29.07 7.13 29.89 C7.14 32.53 7.14 35.17 7.13 37.81 C7.13 39.67 7.13 41.52 7.14 43.38 C7.14 47.27 7.14 51.15 7.13 55.04 C7.12 59.98 7.13 64.92 7.13 69.85 C7.14 73.69 7.14 77.52 7.13 81.36 C7.13 83.18 7.13 84.99 7.14 86.81 C7.14 92.54 7.11 98.27 7 104 C6.99 104.78 6.97 105.57 6.96 106.38 C6.91 108.63 6.83 110.87 6.74 113.12 C6.7 114.4 6.65 115.68 6.6 117 C6 120 6 120 4.1 121.42 C1.72 122.08 -0.28 122.2 -2.75 122.12 C-3.55 122.11 -4.35 122.09 -5.17 122.07 C-5.78 122.05 -6.38 122.02 -7 122 C-7 121.34 -7 120.68 -7 120 C-2.05 119.5 -2.05 119.5 3 119 C2.98 117.41 2.96 115.82 2.94 114.19 C2.89 110.51 3.1 106.94 3.49 103.29 C4.18 95.82 4.18 88.34 4.2 80.84 C4.21 80.08 4.21 79.32 4.21 78.54 C4.23 74.51 4.24 70.48 4.24 66.45 C4.24 63.16 4.26 59.88 4.28 56.59 C4.51 31.15 4.51 31.15 1 6 C0.66 4 0.32 2 0 0 Z " fill="#737475" transform="translate(941,414)"/>
<path d="M0 0 C11.13 0.82 11.13 0.82 15 3 C17.15 6.23 17.3 7.31 17.31 11.06 C17.33 11.94 17.35 12.82 17.36 13.72 C17.24 14.47 17.12 15.23 17 16 C13.34 18.44 11.56 18.26 7.21 18.29 C6.52 18.3 5.83 18.3 5.12 18.31 C2.86 18.33 0.59 18.33 -1.68 18.34 C-3.26 18.34 -4.84 18.35 -6.42 18.36 C-9.73 18.37 -13.03 18.37 -16.34 18.37 C-20.58 18.37 -24.82 18.4 -29.06 18.43 C-32.31 18.45 -35.57 18.46 -38.83 18.46 C-40.39 18.46 -41.96 18.47 -43.52 18.48 C-45.71 18.5 -47.89 18.5 -50.08 18.49 C-51.32 18.49 -52.56 18.49 -53.84 18.49 C-57.54 17.92 -58.71 16.88 -61 14 C-60.34 13.67 -59.68 13.34 -59 13 C-58.34 13.33 -57.68 13.66 -57 14 C-55.51 14.08 -54.01 14.11 -52.52 14.1 C-51.58 14.09 -50.65 14.09 -49.69 14.09 C-48.67 14.08 -47.65 14.07 -46.61 14.06 C-45.55 14.06 -44.49 14.05 -43.4 14.05 C-38.88 14.03 -34.36 14.01 -29.84 13.98 C-15.19 13.9 -0.63 14.13 14 15 C13.67 11.7 13.34 8.4 13 5 C8.38 4.01 3.76 3.02 -1 2 C-0.67 1.34 -0.34 0.68 0 0 Z " fill="#727374" transform="translate(886,533)"/>
<path d="M0 0 C0 30.03 0 60.06 0 91 C0.66 91 1.32 91 2 91 C2 91.66 2 92.32 2 93 C0.35 92.67 -1.3 92.34 -3 92 C-3 61.97 -3 31.94 -3 1 C-1 0 -1 0 0 0 Z " fill="#737475" transform="translate(584,440)"/>
<path d="M0 0 C0 0.99 0 1.98 0 3 C-2.31 3.66 -4.62 4.32 -7 5 C-7.38 6.99 -7.71 8.99 -8 11 C-6.11 12.89 -2.83 12.13 -0.32 12.13 C0.37 12.13 1.07 12.13 1.79 12.13 C4.11 12.14 6.42 12.14 8.74 12.13 C10.35 12.13 11.95 12.13 13.56 12.14 C16.93 12.14 20.3 12.14 23.67 12.13 C28 12.12 32.32 12.13 36.64 12.13 C39.96 12.14 43.28 12.14 46.6 12.13 C48.19 12.13 49.79 12.13 51.38 12.14 C53.61 12.14 55.84 12.13 58.07 12.13 C59.34 12.13 60.6 12.13 61.91 12.13 C65.04 12.14 65.04 12.14 68 11 C67.62 12.94 67.62 12.94 67 15 C64.08 16.46 61.49 16.15 58.23 16.18 C57.53 16.18 56.83 16.19 56.12 16.2 C53.81 16.22 51.5 16.23 49.2 16.24 C48.41 16.24 47.62 16.25 46.81 16.25 C42.64 16.27 38.47 16.29 34.31 16.3 C30 16.31 25.69 16.34 21.39 16.38 C18.08 16.41 14.77 16.41 11.46 16.42 C9.87 16.42 8.28 16.43 6.7 16.45 C4.47 16.48 2.25 16.48 0.03 16.47 C-1.23 16.48 -2.5 16.48 -3.8 16.49 C-7.57 15.91 -8.76 15.04 -11 12 C-11.54 8.37 -11.24 6.49 -9.62 3.19 C-6.83 -0.57 -4.46 -0.1 0 0 Z " fill="#717273" transform="translate(932,535)"/>
<path d="M0 0 C3.14 2.58 4.05 5.4 5.38 9.19 C7.93 16.09 11.98 26.49 19 30 C19 30.66 19 31.32 19 32 C19.68 32.1 20.36 32.21 21.06 32.31 C24 33 24 33 27.11 34.51 C35 37.93 45.44 37.22 53.59 35.04 C60.59 31.92 64.79 27.33 69.26 21.2 C70.12 20.11 70.12 20.11 71 19 C71.66 19 72.32 19 73 19 C72.05 25.54 65.76 30.9 60.73 34.73 C54.05 38.96 48.6 39.24 40.81 39.31 C39.29 39.36 39.29 39.36 37.73 39.4 C31.13 39.46 26.56 38.61 21 35 C20.16 34.47 19.32 33.94 18.46 33.39 C8.25 25.65 1.3 13.62 -1 1 C-0.67 0.67 -0.34 0.34 0 0 Z " fill="#737475" transform="translate(692,502)"/>
<path d="M0 0 C4.46 4.91 4.49 8.99 4.19 15.25 C3.7 20.79 3.7 20.79 5 26 C5.38 25.52 5.76 25.03 6.14 24.53 C10.4 19.35 15.03 15.56 20.55 11.76 C22.6 10.29 24.23 8.78 26 7 C28.19 6.31 28.19 6.31 30 6 C30 6.99 30 7.98 30 9 C28.63 10.24 28.63 10.24 26.71 11.45 C26.02 11.91 25.32 12.36 24.61 12.83 C23.14 13.76 21.68 14.69 20.21 15.62 C15.27 18.86 11.59 22.31 8 27 C7.38 27.8 6.76 28.61 6.12 29.44 C5.75 29.95 5.38 30.47 5 31 C1.12 30.12 1.12 30.12 0 29 C-0.08 27.32 -0.08 25.63 -0.06 23.94 C-0.05 22.92 -0.05 21.89 -0.04 20.83 C-0.01 18.66 0.01 16.48 0.04 14.3 C0.05 13.28 0.05 12.25 0.06 11.19 C0.07 10.24 0.09 9.3 0.1 8.32 C0.16 5.97 0.16 5.97 -1 4 C-11.89 4.5 -11.89 4.5 -23 5 C-23 4.34 -23 3.68 -23 3 C-6.5 -0.94 -6.5 -0.94 0 0 Z " fill="#757677" transform="translate(877,386)"/>
<path d="M0 0 C0.66 0 1.32 0 2 0 C10.94 17.11 10.94 17.11 13 26 C13.19 26.74 13.38 27.49 13.58 28.25 C17.99 46.36 17.2 66.44 11 84 C10.34 84 9.68 84 9 84 C9.49 78.42 10.17 72.91 11.06 67.38 C12.83 55.13 12.49 43.14 10 31 C9.87 30.37 9.74 29.73 9.61 29.08 C7.82 20.52 5.46 13.06 1.17 5.36 C0 3 0 3 0 0 Z " fill="#707172" transform="translate(791,419)"/>
<path d="M0 0 C2.1 3.16 2.25 3.87 2.23 7.47 C2.23 8.37 2.23 9.27 2.23 10.2 C2.22 11.17 2.21 12.14 2.2 13.14 C2.19 14.13 2.19 15.13 2.19 16.15 C2.18 19.33 2.15 22.51 2.12 25.69 C2.11 27.84 2.11 30 2.1 32.15 C2.08 37.43 2.04 42.72 2 48 C0.51 48.5 0.51 48.5 -1 49 C-1.33 33.82 -1.66 18.64 -2 3 C-2.99 3.33 -3.98 3.66 -5 4 C-6.48 4.21 -7.96 4.39 -9.45 4.54 C-10.72 4.67 -10.72 4.67 -12.02 4.8 C-12.9 4.89 -13.78 4.97 -14.69 5.06 C-15.58 5.15 -16.47 5.24 -17.39 5.34 C-19.59 5.56 -21.8 5.78 -24 6 C-23.67 5.01 -23.34 4.02 -23 3 C-15.52 0.68 -7.83 -0.53 0 0 Z " fill="#737475" transform="translate(312,468)"/>
<path d="M0 0 C1.57 1.57 1.17 3.14 1.22 5.32 C1.25 6.24 1.27 7.15 1.29 8.1 C1.36 12.32 1.42 16.55 1.46 20.77 C1.49 23 1.53 25.22 1.58 27.45 C1.66 30.65 1.7 33.86 1.72 37.07 C1.75 38.06 1.78 39.05 1.82 40.07 C1.8 45.35 1.33 48.3 -2.42 52.18 C-5.59 55 -5.59 55 -8 55 C-6.92 52.48 -6.18 51.13 -3.95 49.47 C-0.93 45.64 -1.5 41.94 -1.61 37.2 C-1.62 36.25 -1.62 35.31 -1.63 34.33 C-1.65 31.3 -1.7 28.28 -1.75 25.25 C-1.77 23.2 -1.79 21.14 -1.8 19.09 C-1.85 14.06 -1.92 9.03 -2 4 C-11.93 3.71 -11.93 3.71 -21.62 5.56 C-26.71 7.1 -26.71 7.1 -30 6 C-29 4 -29 4 -25.44 2.5 C-20.91 1.07 -16.38 0.36 -11.69 -0.25 C-10.99 -0.34 -10.3 -0.43 -9.59 -0.53 C-6.18 -0.93 -3.24 -1.25 0 0 Z " fill="#767778" transform="translate(467,469)"/>
<path d="M0 0 C4.01 5.25 3.55 11.55 3.69 17.88 C3.72 18.94 3.76 20.01 3.79 21.12 C3.87 23.74 3.94 26.37 4 29 C4.45 28.34 4.91 27.68 5.38 27 C5.91 26.34 6.45 25.68 7 25 C7.66 25 8.32 25 9 25 C8.82 27.38 8.3 28.7 6.6 30.38 C5.09 31.62 3.55 32.81 2 34 C-0.71 31.29 -0.29 29.76 -0.38 25.97 C-0.41 24.77 -0.45 23.56 -0.48 22.32 C-0.51 21.06 -0.54 19.8 -0.56 18.5 C-0.62 16.01 -0.69 13.52 -0.75 11.03 C-0.78 9.92 -0.8 8.82 -0.83 7.67 C-0.82 5.03 -0.82 5.03 -2 3 C-2.91 3.09 -2.91 3.09 -3.84 3.18 C-5.61 3.36 -7.37 3.54 -9.14 3.71 C-10.96 3.89 -12.77 4.09 -14.57 4.29 C-20.09 4.89 -25.45 5.09 -31 5 C-31 4.34 -31 3.68 -31 3 C-24.94 1.63 -18.84 0.63 -12.69 -0.19 C-12.01 -0.28 -11.32 -0.38 -10.62 -0.48 C-3.34 -1.4 -3.34 -1.4 0 0 Z " fill="#797A7B" transform="translate(582,386)"/>
<path d="M0 0 C0.66 0 1.32 0 2 0 C1.6 5.36 1.2 10.04 -1 15 C-2.29 21.45 -2.18 27.82 -2.19 34.38 C-2.2 35.57 -2.21 36.76 -2.22 37.99 C-2.24 44.39 -1.89 49.89 0 56 C0.57 58.08 1.13 60.17 1.69 62.25 C1.96 63.25 2.23 64.24 2.51 65.27 C2.99 67.96 2.9 69.45 2 72 C-4.78 60.31 -5.55 47.39 -5.44 34.12 C-5.44 33.43 -5.43 32.73 -5.43 32.01 C-5.39 21.05 -5.01 10.02 0 0 Z " fill="#737475" transform="translate(663,437)"/>
<path d="M0 0 C0.01 0.68 0.02 1.37 0.02 2.07 C0.11 9.18 0.21 16.28 0.32 23.39 C0.36 26.04 0.39 28.7 0.42 31.35 C0.47 35.16 0.53 38.97 0.59 42.77 C0.6 43.97 0.61 45.16 0.62 46.39 C0.64 47.49 0.66 48.59 0.68 49.72 C0.69 50.7 0.71 51.67 0.72 52.67 C0.78 55.19 0.78 55.19 3 57 C1.51 57.5 1.51 57.5 0 58 C-2.19 56.27 -2.94 55.4 -3.36 52.59 C-3.35 51.64 -3.35 50.68 -3.34 49.7 C-3.34 48.62 -3.34 47.54 -3.34 46.43 C-3.32 45.26 -3.31 44.1 -3.29 42.89 C-3.29 41.7 -3.28 40.51 -3.28 39.28 C-3.26 35.45 -3.23 31.63 -3.19 27.81 C-3.17 25.22 -3.16 22.64 -3.15 20.05 C-3.11 13.7 -3.06 7.35 -3 1 C-1 0 -1 0 0 0 Z " fill="#737475" transform="translate(976,476)"/>
<path d="M0 0 C1.3 0 2.6 0 3.94 0 C7.91 1.3 9.16 2.94 11.12 6.55 C13.65 13.62 12.11 21.02 10 28 C9.01 28 8.02 28 7 28 C7.16 27.09 7.33 26.19 7.5 25.25 C8.34 19.29 9.07 12.51 7.3 6.7 C6.1 4.8 6.1 4.8 3.76 4.27 C-4.84 3.43 -12.06 3.34 -19.98 7.12 C-22 8 -22 8 -25 8 C-25 7.34 -25 6.68 -25 6 C-23.59 5.18 -22.17 4.37 -20.75 3.56 C-19.57 2.88 -19.57 2.88 -18.36 2.19 C-12.48 -0.78 -6.45 -0.15 0 0 Z " fill="#757677" transform="translate(635,385)"/>
<path d="M0 0 C2.18 2.8 4 5.66 5.75 8.75 C14.96 24.15 27.85 31.38 44 38 C43.5 38.99 43.5 38.99 43 40 C30.04 37.19 21.45 31.12 12 22 C10.87 20.97 10.87 20.97 9.71 19.91 C8 18 8 18 8 15 C7.34 15 6.68 15 6 15 C2.26 10.42 0.29 6.74 -1 1 C-0.67 0.67 -0.34 0.34 0 0 Z " fill="#727374" transform="translate(667,511)"/>
<path d="M0 0 C0.84 0.03 1.67 0.07 2.53 0.1 C17.13 0.89 17.13 0.89 20.94 4.81 C21.25 5.43 21.56 6.05 21.88 6.69 C20.12 6.38 18.37 6.06 16.62 5.75 C15.16 5.49 15.16 5.49 13.67 5.22 C10.88 4.69 10.88 4.69 9.07 4.17 C4.12 3.09 -1.09 3.46 -6.12 3.44 C-7.29 3.42 -8.46 3.4 -9.67 3.38 C-16.72 3.34 -22.92 4.07 -29.7 6.04 C-32.12 6.69 -32.12 6.69 -35.12 6.69 C-34.8 5.7 -34.46 4.71 -34.12 3.69 C-23.13 -0.25 -11.51 -0.5 0 0 Z " fill="#737475" transform="translate(296.125,384.3125)"/>
<path d="M0 0 C1.84 -0.02 1.84 -0.02 3.71 -0.04 C21.47 -0.07 21.47 -0.07 26.88 4.31 C27.33 4.93 27.78 5.55 28.25 6.19 C25.32 5.71 22.4 5.22 19.49 4.65 C5.88 2.2 -7.64 2.11 -21.06 5.53 C-23.75 6.19 -23.75 6.19 -26.75 6.19 C-26.75 5.53 -26.75 4.87 -26.75 4.19 C-17.85 0.09 -9.72 0.01 0 0 Z " fill="#747576" transform="translate(443.75,384.8125)"/>
<path d="M0 0 C-3.62 1.25 -6.34 0.75 -10.06 0.06 C-21.68 -1.84 -32.45 -0.62 -44 1 C-44 0.34 -44 -0.32 -44 -1 C-32.27 -7.92 -11.24 -7.58 0 0 Z " fill="#747576" transform="translate(755,390)"/>
<path d="M0 0 C4.89 4.89 4.13 14.77 4.2 21.3 C4.18 23.78 4.16 26.27 4.12 28.75 C4.12 30.03 4.11 31.31 4.1 32.63 C4.07 35.76 4.04 38.88 4 42 C3.01 41.67 2.02 41.34 1 41 C0.97 40.25 0.95 39.5 0.92 38.73 C0.81 35.26 0.68 31.78 0.56 28.31 C0.52 27.13 0.48 25.95 0.44 24.74 C0.19 17.61 -0.24 10.54 -0.9 3.44 C-0.93 2.63 -0.97 1.83 -1 1 C-0.67 0.67 -0.34 0.34 0 0 Z " fill="#747576" transform="translate(310,417)"/>
<path d="M0 0 C1.32 0.33 2.64 0.66 4 1 C4.66 7.93 5.32 14.86 6 22 C5.34 22 4.68 22 4 22 C2.25 18.17 1.65 14.88 1.38 10.69 C1.3 9.62 1.23 8.55 1.15 7.45 C1.1 6.64 1.05 5.83 1 5 C-6.03 10.46 -6.03 10.46 -13 16 C-13.66 15.67 -14.32 15.34 -15 15 C-11.48 10.76 -7.85 6.69 -3.81 2.94 C-2.86 2.05 -2.86 2.05 -1.89 1.15 C-1.27 0.77 -0.64 0.39 0 0 Z " fill="#68696A" transform="translate(468,527)"/>
<path d="M0 0 C0.5 0.99 0.5 0.99 1 2 C-0.89 1.75 -0.89 1.75 -2.81 1.5 C-8.07 0.97 -13.29 0.89 -18.56 0.88 C-19.35 0.87 -20.14 0.87 -20.96 0.86 C-26.38 0.87 -31.63 1.32 -37 2 C-37 1.34 -37 0.68 -37 0 C-28.05 -5.6 -9.06 -4.91 0 0 Z " fill="#757677" transform="translate(951,389)"/>
<path d="M0 0 C0.66 0 1.32 0 2 0 C1.83 1.15 1.67 2.31 1.5 3.5 C0.31 14.41 0.46 25.3 3 36 C-0.93 32.73 -1.87 29.93 -3 25 C-3.18 22.31 -3.29 19.75 -3.25 17.06 C-3.25 16.36 -3.24 15.66 -3.24 14.94 C-3.03 3.03 -3.03 3.03 0 0 Z " fill="#747576" transform="translate(380,499)"/>
<path d="M0 0 C0.65 0.07 1.31 0.14 1.98 0.22 C11.75 1.21 21.29 1.4 31.04 0.12 C33 0 33 0 35 1 C35 1.66 35 2.32 35 3 C22.62 5.17 12.35 5.38 0 3 C0 2.01 0 1.02 0 0 Z " fill="#737475" transform="translate(715,550)"/>
<path d="M0 0 C0.99 0.33 1.98 0.66 3 1 C2.51 1.55 2.01 2.11 1.5 2.68 C0.54 3.77 0.54 3.77 -0.44 4.88 C-1.08 5.59 -1.71 6.31 -2.37 7.05 C-5.46 10.74 -5.34 13.79 -5.27 18.46 C-4.86 22.27 -3.59 24.22 -1 27 C1.27 28.53 3.56 29.74 6 31 C6.66 31.66 7.32 32.32 8 33 C6.38 33.75 6.38 33.75 4 34 C1.65 32.77 -0 31.68 -2 30 C-2.57 29.55 -3.13 29.1 -3.72 28.63 C-7.56 25 -8.51 21.88 -8.81 16.62 C-8.52 9.68 -5.84 5.78 -1 1 C-0.67 0.67 -0.34 0.34 0 0 Z " fill="#717273" transform="translate(1024,518)"/>
<path d="M0 0 C0.66 0.66 1.32 1.32 2 2 C1.01 4.31 0.02 6.62 -1 9 C5.98 10.69 12.84 12.3 20 13 C20.66 14.65 21.32 16.3 22 18 C21.34 18 20.68 18 20 18 C20 17.34 20 16.68 20 16 C19 15.96 18 15.93 16.96 15.89 C1.16 15.16 1.16 15.16 -3 11 C-3.48 3.63 -3.48 3.63 -1.5 1 C-1 0.67 -0.51 0.34 0 0 Z " fill="#767779" transform="translate(828,392)"/>
<path d="M0 0 C1.31 2.56 1.31 2.56 2 5 C1.01 5 0.02 5 -1 5 C-1.33 4.34 -1.66 3.68 -2 3 C-2.91 3.09 -2.91 3.09 -3.84 3.18 C-5.61 3.36 -7.37 3.54 -9.14 3.71 C-10.96 3.89 -12.77 4.09 -14.57 4.29 C-20.09 4.89 -25.45 5.09 -31 5 C-31 4.34 -31 3.68 -31 3 C-24.94 1.63 -18.84 0.63 -12.69 -0.19 C-12.01 -0.28 -11.32 -0.38 -10.62 -0.48 C-6.87 -0.95 -3.62 -1.22 0 0 Z " fill="#737475" transform="translate(582,386)"/>
<path d="M0 0 C10.18 4.74 10.18 4.74 14 9 C14.93 9.43 14.93 9.43 15.88 9.88 C18.36 11.19 19.7 12.67 21.5 14.81 C22.4 15.88 22.4 15.88 23.32 16.97 C23.87 17.64 24.43 18.31 25 19 C25.8 19.93 26.61 20.86 27.44 21.81 C29 24 29 24 29 27 C28.34 27 27.68 27 27 27 C25.51 25.3 24.08 23.54 22.69 21.75 C19.72 17.94 16.84 14.93 13 12 C12.52 11.5 12.04 11 11.54 10.48 C9.36 8.38 6.88 6.91 4.31 5.31 C2.82 4.38 2.82 4.38 1.3 3.43 C0.54 2.96 -0.22 2.48 -1 2 C-0.67 1.34 -0.34 0.68 0 0 Z " fill="#737475" transform="translate(762,392)"/>
<path d="M0 0 C11.32 1.62 17.41 7.83 24.47 16.47 C26.21 19.35 26.65 21.68 27 25 C23.92 22.1 21.61 19.07 19.25 15.56 C14.03 8.3 8.63 4.98 0 3 C0 2.01 0 1.02 0 0 Z " fill="#737475" transform="translate(739,399)"/>
<path d="M0 0 C2.75 -0.31 2.75 -0.31 6 0 C8.91 2.6 9.88 4.19 10.44 8.06 C9.93 11.46 9.48 12.63 7 15 C4.31 15.46 2 15.69 -0.69 15.75 C-1.74 15.79 -1.74 15.79 -2.81 15.84 C-4.54 15.91 -6.27 15.96 -8 16 C-7.67 15.01 -7.34 14.02 -7 13 C-2.71 12.34 1.58 11.68 6 11 C6.45 5.52 6.45 5.52 5 3 C1.97 2.34 1.97 2.34 -1 2 C-0.67 1.34 -0.34 0.68 0 0 Z " fill="#737475" transform="translate(511,534)"/>
<path d="M0 0 C0.66 0 1.32 0 2 0 C2.19 1.09 2.37 2.19 2.56 3.31 C3.67 7.13 3.67 7.13 6.69 8.94 C12.69 11.04 19.72 10.22 26 10 C26 10.99 26 11.98 26 13 C18.92 14.49 11.91 15.57 5.5 11.69 C2.88 9.9 1.82 8.73 0 6 C-0.12 2.81 -0.12 2.81 0 0 Z " fill="#707172" transform="translate(383,425)"/>
<path d="M0 0 C6.43 9.65 8.7 20.48 8 32 C7.01 31.67 6.02 31.34 5 31 C4.97 30.45 4.95 29.9 4.92 29.34 C4.43 22.45 2.8 16.04 0.94 9.42 C0.17 6.61 -0.57 3.88 -1 1 C-0.67 0.67 -0.34 0.34 0 0 Z " fill="#737475" transform="translate(334,403)"/>
<path d="M0 0 C0.66 0 1.32 0 2 0 C2 2.64 2 5.28 2 8 C-3.64 9.71 -9.33 10.95 -15.11 12.12 C-18.96 13.29 -20.31 14.72 -22.19 18.19 C-22.46 18.79 -22.72 19.38 -23 20 C-23.96 16.95 -24.13 15.37 -23.06 12.31 C-17.82 6.43 -7.32 7.42 0 7 C0 4.69 0 2.38 0 0 Z " fill="#848586" transform="translate(848,526)"/>
<path d="M0 0 C2.31 1.58 3.63 3.17 5.16 5.48 C4.83 6.14 4.5 6.8 4.16 7.48 C3.48 6.89 2.8 6.29 2.1 5.67 C-5.58 -0.05 -12.21 -0.29 -21.46 0.98 C-22.64 1.23 -22.64 1.23 -23.84 1.48 C-23.51 0.49 -23.18 -0.5 -22.84 -1.52 C-14.67 -5.39 -7.73 -3.97 0 0 Z " fill="#717273" transform="translate(935.8359375,406.515625)"/>
<path d="M0 0 C3 2 3 2 3.58 4.06 C3.66 4.84 3.73 5.63 3.81 6.44 C3.9 7.22 3.99 8 4.08 8.81 C4 11 4 11 2 14 C-0.93 14.77 -0.93 14.77 -4.44 15.25 C-6.17 15.51 -6.17 15.51 -7.93 15.77 C-11 16 -11 16 -14 15 C-13.67 14.34 -13.34 13.68 -13 13 C-10.06 12.37 -10.06 12.37 -6.44 11.88 C-5.24 11.71 -4.04 11.54 -2.81 11.37 C-1.88 11.25 -0.95 11.12 0 11 C0.09 7.04 0.11 4.42 -2 1 C-1.34 0.67 -0.68 0.34 0 0 Z " fill="#717273" transform="translate(362,534)"/>
<path d="M0 0 C0 8.91 0 17.82 0 27 C-0.99 26.67 -1.98 26.34 -3 26 C-3 17.75 -3 9.5 -3 1 C-1 0 -1 0 0 0 Z " fill="#737475" transform="translate(691,457)"/>
<path d="M0 0 C-1.45 3.46 -3.24 5.26 -6.12 7.62 C-10.51 11.39 -13.98 15.5 -17.47 20.09 C-17.97 20.72 -18.48 21.35 -19 22 C-19.33 22 -19.66 22 -20 22 C-20.46 18.48 -20.17 17.24 -18.06 14.32 C-4.43 0 -4.43 0 0 0 Z " fill="#353537" transform="translate(903,411)"/>
<path d="M0 0 C0.66 0 1.32 0 2 0 C1.05 6.54 -5.23 11.82 -10.2 15.73 C-13.69 18 -16.78 19.6 -21 20 C-21 19.01 -21 18.02 -21 17 C-20.24 16.69 -19.48 16.39 -18.69 16.07 C-11.06 12.69 -6.65 8.94 -1.74 2.2 C-1.17 1.47 -0.59 0.75 0 0 Z " fill="#9C9D9F" transform="translate(763,521)"/>
<path d="M0 0 C1.32 0.66 2.64 1.32 4 2 C4 2.66 4 3.32 4 4 C4.66 4 5.32 4 6 4 C10.65 10.25 10.92 16.34 10 24 C9.34 24.66 8.68 25.32 8 26 C6.91 22.74 6.83 20.11 6.69 16.69 C6.18 9.45 4.41 5.87 -1 1 C-0.67 0.67 -0.34 0.34 0 0 Z " fill="#737475" transform="translate(1044,517)"/>
<path d="M0 0 C0 0.66 0 1.32 0 2 C0.99 2.33 1.98 2.66 3 3 C6 7.33 6 7.33 6 10 C5.34 10 4.68 10 4 10 C2.71 8.35 1.63 6.6 0.51 4.82 C-1.47 2.43 -3.17 1.3 -6 0 C-9.58 -0.36 -9.58 -0.36 -13.31 -0.19 C-14.57 -0.16 -15.82 -0.13 -17.11 -0.11 C-18.07 -0.07 -19.02 -0.04 -20 0 C-19.67 -0.99 -19.34 -1.98 -19 -3 C-12.24 -4.73 -6.06 -3.25 0 0 Z " fill="#737475" transform="translate(302,400)"/>
<path d="M0 0 C5.63 0.6 8.06 2.72 11.75 7 C15.67 12.06 17.82 16.73 19 23 C15.1 21.7 14.88 20.35 13.06 16.75 C9.54 10.05 5.8 5.74 0 1 C0 0.67 0 0.34 0 0 Z " fill="#737475" transform="translate(955,392)"/>
<path d="M0 0 C0.66 0.66 1.32 1.32 2 2 C1.52 2.33 1.04 2.66 0.55 3.01 C-1.66 4.54 -3.86 6.08 -6.06 7.62 C-7.19 8.41 -7.19 8.41 -8.34 9.21 C-13.14 12.57 -17.61 16.12 -22 20 C-22 17 -22 17 -20.79 15.39 C-16.82 11.47 -12.75 8.3 -8.02 5.36 C-5.97 4.08 -5.97 4.08 -4.42 2.39 C-3 1 -3 1 0 0 Z " fill="#9E9FA0" transform="translate(906,392)"/>
<path d="M0 0 C0.33 0.66 0.66 1.32 1 2 C-2.19 2.65 -5.37 3.29 -8.56 3.94 C-9.46 4.12 -10.35 4.3 -11.28 4.49 C-16.17 5.48 -21.05 6.35 -26 7 C-25 4 -25 4 -22.91 2.88 C-19.44 1.83 -16.09 1.33 -12.5 0.88 C-11.21 0.71 -9.92 0.54 -8.59 0.37 C-5.69 0.07 -2.92 -0.08 0 0 Z " fill="#7A7B7C" transform="translate(450,459)"/>
<path d="M0 0 C2.69 -0.25 2.69 -0.25 5 0 C0.4 6.17 -4.03 8.9 -11 12 C-12.15 12.62 -13.31 13.24 -14.5 13.88 C-15.33 14.25 -16.15 14.62 -17 15 C-17.66 14.67 -18.32 14.34 -19 14 C-15.18 9.73 -10.91 7.9 -5.78 5.56 C-2.94 3.97 -1.85 2.6 0 0 Z " fill="#545456" transform="translate(777,535)"/>
<path d="M0 0 C0.33 0 0.66 0 1 0 C1.03 4.48 1.05 8.96 1.06 13.44 C1.07 14.72 1.08 16 1.09 17.31 C1.09 18.53 1.09 19.74 1.1 21 C1.1 22.12 1.11 23.25 1.11 24.41 C1 27 1 27 0 28 C-2.33 28.04 -4.67 28.04 -7 28 C-7 27.34 -7 26.68 -7 26 C-5.02 26 -3.04 26 -1 26 C-1.01 25.25 -1.01 24.5 -1.02 23.72 C-1.04 20.33 -1.05 16.95 -1.06 13.56 C-1.07 12.38 -1.08 11.19 -1.09 9.97 C-1.09 8.85 -1.09 7.73 -1.1 6.57 C-1.1 5.52 -1.11 4.48 -1.11 3.41 C-1 1 -1 1 0 0 Z " fill="#767778" transform="translate(467,432)"/>
<path d="M0 0 C0 0.66 0 1.32 0 2 C-1.98 3.33 -1.98 3.33 -4.62 4.81 C-11.3 8.7 -16.2 12.94 -21 19 C-21 16 -21 16 -19 14 C-18.74 13.22 -18.48 12.44 -18.22 11.64 C-16.62 8.19 -14.61 6.9 -11.5 4.75 C-10.52 4.06 -9.54 3.38 -8.53 2.67 C-5.03 0.36 -4.37 0 0 0 Z " fill="#4E4F50" transform="translate(607,418)"/>
<path d="M0 0 C0.33 0.66 0.66 1.32 1 2 C-2 9.75 -6.39 16.88 -12 23 C-12.33 23 -12.66 23 -13 23 C-13.38 20.94 -13.38 20.94 -13 18 C-11.66 16.23 -10.17 14.66 -8.66 13.04 C-6.19 10 -4.69 6.6 -3.08 3.04 C-2 1 -2 1 0 0 Z " fill="#4F5051" transform="translate(798,509)"/>
<path d="M0 0 C2 2 2 2 2.2 4.38 C2.17 5.29 2.15 6.19 2.12 7.12 C2.11 8.04 2.09 8.95 2.07 9.88 C2.05 10.58 2.02 11.28 2 12 C1.34 11.67 0.68 11.34 0 11 C0 9.02 0 7.04 0 5 C-3.12 5.65 -3.12 5.65 -4 8 C-4.66 8 -5.32 8 -6 8 C-6 8.66 -6 9.32 -6 10 C-7.96 11.71 -9.96 13.38 -12 15 C-12.66 14.67 -13.32 14.34 -14 14 C-12.75 12.58 -11.5 11.17 -10.25 9.75 C-9.55 8.96 -8.86 8.17 -8.14 7.36 C-2.68 1.34 -2.68 1.34 0 0 Z " fill="#626364" transform="translate(315,526)"/>
<path d="M0 0 C6.6 0.33 13.2 0.66 20 1 C20.33 1.99 20.66 2.98 21 4 C18.08 4.05 15.17 4.09 12.25 4.12 C11.43 4.14 10.6 4.16 9.75 4.18 C8.95 4.18 8.15 4.19 7.33 4.2 C6.59 4.21 5.86 4.22 5.11 4.23 C2.7 3.97 1.09 3.19 -1 2 C-0.67 1.34 -0.34 0.68 0 0 Z " fill="#737475" transform="translate(405,550)"/>
<path d="M0 0 C0 0.66 0 1.32 0 2 C-1.5 3.29 -3.05 4.5 -4.62 5.69 C-9.05 9.12 -12.53 12.62 -16 17 C-17 15 -17 15 -16.5 12.81 C-13.34 6.89 -7.08 0 0 0 Z " fill="#505152" transform="translate(719,402)"/>
<path d="M0 0 C-2.8 2.8 -5.92 2.92 -9.69 3.56 C-10.73 3.75 -10.73 3.75 -11.79 3.94 C-16.18 4.73 -20.58 5.39 -25 6 C-24.67 5.01 -24.34 4.02 -24 3 C-21.3 2.09 -21.3 2.09 -17.88 1.38 C-16.7 1.13 -15.52 0.89 -14.31 0.63 C-13.22 0.42 -12.12 0.22 -11 0 C-9.87 -0.22 -9.87 -0.22 -8.72 -0.45 C-5.56 -0.98 -3.04 -1.09 0 0 Z " fill="#7D7E80" transform="translate(293,460)"/>
<path d="M0 0 C5.54 0.69 7.78 2.47 11.31 6.81 C13.84 10.09 15.62 13.1 17 17 C16.01 17 15.02 17 14 17 C12.17 14.77 12.17 14.77 10.19 11.81 C7.12 7.41 4.27 4.2 0 1 C0 0.67 0 0.34 0 0 Z " fill="#707172" transform="translate(475,392)"/>
<path d="M0 0 C5.14 0.65 7.29 4.34 10.29 8.21 C12.78 12.27 13 15.28 13 20 C12.34 20 11.68 20 11 20 C10.18 18.08 9.37 16.17 8.56 14.25 C8.11 13.18 7.66 12.12 7.19 11.02 C6 8 6 8 5.5 5.69 C5.33 5.13 5.17 4.57 5 4 C2.51 2.7 2.51 2.7 0 2 C0 1.34 0 0.68 0 0 Z " fill="#737475" transform="translate(453,400)"/>
<path d="M0 0 C0.75 0.01 1.5 0.01 2.27 0.02 C3.08 0.02 3.89 0.02 4.72 0.03 C5.57 0.03 6.42 0.04 7.3 0.05 C8.15 0.06 9 0.06 9.88 0.06 C12 0.08 14.12 0.09 16.23 0.11 C16.56 1.1 16.89 2.09 17.23 3.11 C14.46 3.17 11.69 3.21 8.92 3.24 C8.14 3.26 7.35 3.27 6.54 3.29 C5.78 3.3 5.03 3.3 4.25 3.31 C3.2 3.32 3.2 3.32 2.14 3.34 C0.23 3.11 0.23 3.11 -2.77 1.11 C-1.77 0.11 -1.77 0.11 0 0 Z " fill="#737475" transform="translate(253.765869140625,550.886474609375)"/>
<path d="M0 0 C0.99 0.33 1.98 0.66 3 1 C0.4 3.46 -2.21 5.92 -4.81 8.38 C-5.55 9.07 -6.29 9.77 -7.05 10.49 C-7.76 11.16 -8.47 11.83 -9.21 12.52 C-10.19 13.45 -10.19 13.45 -11.19 14.4 C-13 16 -13 16 -16 18 C-15.56 13.65 -12.68 11.31 -9.69 8.44 C-9.2 7.96 -8.71 7.47 -8.21 6.98 C-2.79 1.67 -2.79 1.67 0 0 Z " fill="#999A9B" transform="translate(607,393)"/>
<path d="M0 0 C2.37 2.2 4.06 4.11 5.69 6.94 C8.78 11.03 12.45 12.8 17 15 C17 15.99 17 16.98 17 18 C12.82 16.6 10.08 14.63 6.81 11.69 C5.95 10.93 5.09 10.17 4.21 9.39 C1.56 6.53 0 3.96 0 0 Z " fill="#737475" transform="translate(227,532)"/>
<path d="M0 0 C0.33 0 0.66 0 1 0 C1 16.83 1 33.66 1 51 C0.67 51 0.34 51 0 51 C0 34.17 0 17.34 0 0 Z " fill="#737475" transform="translate(1071,451)"/>
<path d="M0 0 C5.94 0 11.88 0 18 0 C18 0.99 18 1.98 18 3 C11.18 3.83 5.48 4.5 -1 2 C-0.67 1.34 -0.34 0.68 0 0 Z " fill="#6E6F70" transform="translate(235,435)"/>
<path d="M0 0 C1.75 -0.02 1.75 -0.02 3.53 -0.04 C6.5 0.19 6.5 0.19 8.5 2.19 C6.38 4.31 1.88 3.61 -1.06 3.75 C-1.87 3.79 -2.68 3.84 -3.51 3.88 C-5.5 3.99 -7.5 4.09 -9.5 4.19 C-9.17 3.2 -8.84 2.21 -8.5 1.19 C-5.65 -0.24 -3.17 0.02 0 0 Z " fill="#6E6F70" transform="translate(443.5,396.8125)"/>
<path d="M0 0 C4.4 3.49 5.76 7.7 7 13 C7.19 16.56 7.19 16.56 7 19 C3.54 16.31 2.92 13.06 1.81 8.94 C1.3 7.06 1.3 7.06 0.77 5.15 C0 2 0 2 0 0 Z " fill="#737475" transform="translate(766,424)"/>
<path d="M0 0 C2.1 -0.03 4.21 -0.05 6.31 -0.06 C7.48 -0.07 8.66 -0.09 9.86 -0.1 C13 0 13 0 16 1 C16.33 1.99 16.66 2.98 17 4 C16.01 3.67 15.02 3.34 14 3 C11.43 2.93 8.88 2.91 6.31 2.94 C5.61 2.94 4.91 2.95 4.19 2.95 C2.46 2.96 0.73 2.98 -1 3 C-0.67 2.01 -0.34 1.02 0 0 Z " fill="#737475" transform="translate(619,414)"/>
<path d="M0 0 C0.66 0 1.32 0 2 0 C1.69 6.62 0.26 11.22 -3 17 C-3.66 16.34 -4.32 15.68 -5 15 C-3.35 10.05 -1.7 5.1 0 0 Z " fill="#7B7C7D" transform="translate(771,499)"/>
<path d="M0 0 C2.75 -0.31 2.75 -0.31 6 0 C9.06 2.73 9.94 4.2 10.25 8.31 C10.17 9.2 10.09 10.09 10 11 C8.02 11.99 8.02 11.99 6 13 C6.03 10.98 6.07 8.96 6.1 6.95 C6.13 4.92 6.13 4.92 5 3 C1.97 2.34 1.97 2.34 -1 2 C-0.67 1.34 -0.34 0.68 0 0 Z " fill="#6B6C6D" transform="translate(511,534)"/>
<path d="M0 0 C5 5 5 5 6.88 7.06 C9.68 9.62 12.66 11.2 16 13 C15.67 13.66 15.34 14.32 15 15 C11.08 13.65 8.36 11.92 5.25 9.19 C4.47 8.52 3.69 7.85 2.89 7.17 C0.77 4.73 0.33 3.17 0 0 Z " fill="#737475" transform="translate(383,535)"/>
<path d="M0 0 C0.66 0 1.32 0 2 0 C3.17 2.27 4.34 4.54 5.5 6.81 C6 7.78 6 7.78 6.51 8.76 C8 11.7 9 13.66 9 17 C8.34 17 7.68 17 7 17 C5.83 14.73 4.66 12.46 3.5 10.19 C3.17 9.54 2.83 8.9 2.49 8.24 C1 5.3 0 3.34 0 0 Z " fill="#6D6E6F" transform="translate(791,419)"/>
<path d="M0 0 C0.66 0 1.32 0 2 0 C1.86 1.6 1.71 3.21 1.56 4.81 C1.48 5.71 1.4 6.6 1.32 7.52 C1 10 1 10 0 13 C-0.99 13.33 -1.98 13.66 -3 14 C-2.59 9.03 -2.2 4.55 0 0 Z " fill="#797A7B" transform="translate(663,437)"/>
<path d="M0 0 C0 3.47 -0.87 5.91 -2 9.19 C-2.37 10.27 -2.74 11.36 -3.12 12.48 C-3.41 13.31 -3.7 14.14 -4 15 C-4.99 15 -5.98 15 -7 15 C-6.72 13.58 -6.42 12.17 -6.12 10.75 C-5.96 9.96 -5.8 9.17 -5.63 8.36 C-4.52 4.21 -3.65 2.43 0 0 Z " fill="#616263" transform="translate(698,425)"/>
<path d="M0 0 C1.49 2.99 0.41 4.95 -0.44 8.12 C-0.72 9.22 -1.01 10.32 -1.31 11.45 C-1.54 12.29 -1.76 13.13 -2 14 C-2.99 14 -3.98 14 -5 14 C-4.45 9.44 -3.73 5.27 -2 1 C-1.34 0.67 -0.68 0.34 0 0 Z " fill="#6A6B6C" transform="translate(415,420)"/>
<path d="M0 0 C0.66 0 1.32 0 2 0 C1.99 0.9 1.98 1.81 1.96 2.74 C1.96 3.92 1.95 5.1 1.94 6.31 C1.93 7.48 1.91 8.66 1.9 9.86 C1.85 13.03 1.85 13.03 3 16 C1.06 15.5 1.06 15.5 -1 14 C-2.26 8.61 -2.2 5.19 0 0 Z " fill="#767778" transform="translate(230,418)"/>
<path d="M0 0 C0.66 0.66 1.32 1.32 2 2 C0.12 3.88 -3.04 3.39 -5.56 3.56 C-6.76 3.65 -7.96 3.73 -9.19 3.82 C-10.12 3.88 -11.05 3.94 -12 4 C-11.67 3.01 -11.34 2.02 -11 1 C-7.08 -0.31 -4.14 -0.2 0 0 Z " fill="#696A6B" transform="translate(736,398)"/>
<path d="M0 0 C3.63 0.33 7.26 0.66 11 1 C11.66 2.65 12.32 4.3 13 6 C12.01 6.5 12.01 6.5 11 7 C10.67 6.34 10.34 5.68 10 5 C7.43 4.09 7.43 4.09 4.44 3.38 C3.43 3.11 2.41 2.85 1.37 2.59 C0.59 2.39 -0.19 2.2 -1 2 C-0.67 1.34 -0.34 0.68 0 0 Z " fill="#6F7071" transform="translate(986,534)"/>
<path d="M0 0 C-1.5 3.67 -3.64 5.69 -6.62 8.25 C-7.44 8.96 -8.26 9.66 -9.1 10.39 C-9.73 10.92 -10.35 11.45 -11 12 C-11 8.09 -9.76 7.19 -7.19 4.31 C-6.48 3.5 -5.77 2.7 -5.04 1.86 C-3 0 -3 0 0 0 Z " fill="#4E4F50" transform="translate(903,411)"/>
<path d="M0 0 C-2.53 3.15 -4.77 3.59 -8.69 4.19 C-9.68 4.35 -10.68 4.5 -11.7 4.67 C-12.46 4.78 -13.22 4.89 -14 5 C-13.67 4.01 -13.34 3.02 -13 2 C-8.57 0.35 -4.71 -0.23 0 0 Z " fill="#7E7F80" transform="translate(275,386)"/>
<path d="M0 0 C1.86 0.25 3.72 0.58 5.56 0.94 C6.57 1.13 7.59 1.33 8.63 1.53 C9.8 1.76 9.8 1.76 11 2 C11 2.99 11 3.98 11 5 C3.62 5.49 3.62 5.49 0.5 3 C0 2.34 -0.49 1.68 -1 1 C-0.67 0.67 -0.34 0.34 0 0 Z " fill="#6C6D6E" transform="translate(318,547)"/>
<path d="M0 0 C0 0.66 0 1.32 0 2 C-3.58 4.75 -6.49 6.47 -11 7 C-11 6.01 -11 5.02 -11 4 C-9.73 3.33 -8.46 2.66 -7.19 2 C-6.48 1.63 -5.77 1.26 -5.04 0.88 C-3 0 -3 0 0 0 Z " fill="#8A8B8C" transform="translate(753,534)"/>
<path d="M0 0 C2.53 1.26 2.85 2.36 4.06 4.88 C4.4 5.57 4.75 6.27 5.1 6.99 C6 9 6 9 7 12 C2.79 10.5 1.08 7.85 -1 4 C-0.75 1.62 -0.75 1.62 0 0 Z " fill="#737475" transform="translate(252,519)"/>
<path d="M0 0 C-4.39 3.42 -7.29 5.58 -13 6 C-13 5.34 -13 4.68 -13 4 C-11.4 3.13 -9.8 2.28 -8.19 1.44 C-7.29 0.96 -6.4 0.49 -5.48 -0 C-3 -1 -3 -1 0 0 Z " fill="#939495" transform="translate(456,527)"/>
<path d="M0 0 C0.72 0.1 1.44 0.21 2.19 0.31 C-1.15 3.65 -4.48 6.98 -7.81 10.31 C-8.12 8.12 -8.12 8.12 -7.81 5.31 C-4.03 0.45 -4.03 0.45 0 0 Z " fill="#474849" transform="translate(426.8125,402.6875)"/>
<path d="M0 0 C0.66 0.66 1.32 1.32 2 2 C0.57 3.01 -0.87 4.01 -2.31 5 C-3.51 5.84 -3.51 5.84 -4.74 6.69 C-7 8 -7 8 -10 8 C-10 7.34 -10 6.68 -10 6 C-9.34 6 -8.68 6 -8 6 C-8 5.34 -8 4.68 -8 4 C-5.36 2.68 -2.72 1.36 0 0 Z " fill="#979899" transform="translate(702,392)"/>
<path d="M0 0 C0 0.99 0 1.98 0 3 C-4.95 4.49 -4.95 4.49 -10 6 C-7.83 -0.04 -6.29 -0.14 0 0 Z " fill="#878889" transform="translate(932,535)"/>
<path d="M0 0 C0.66 0 1.32 0 2 0 C2 2.64 2 5.28 2 8 C-4.75 10.12 -4.75 10.12 -7 9 C-6.67 8.34 -6.34 7.68 -6 7 C-4.02 7 -2.04 7 0 7 C0 4.69 0 2.38 0 0 Z " fill="#7B7C7D" transform="translate(848,526)"/>
<path d="M0 0 C-1.58 4.27 -4.51 6.27 -8 9 C-8.66 8.67 -9.32 8.34 -10 8 C-8.91 6.66 -7.8 5.33 -6.69 4 C-5.77 2.89 -5.77 2.89 -4.82 1.75 C-3 0 -3 0 0 0 Z " fill="#4C4D4E" transform="translate(463,534)"/>
<path d="M0 0 C0 3.58 -0.79 4.41 -2.94 7.19 C-3.48 7.9 -4.03 8.62 -4.59 9.36 C-5.06 9.9 -5.52 10.44 -6 11 C-6.33 11 -6.66 11 -7 11 C-7.44 8.88 -7.44 8.88 -7 6 C-4.87 3.72 -2.5 1.85 0 0 Z " fill="#575859" transform="translate(792,521)"/>
<path d="M0 0 C0.99 0.33 1.98 0.66 3 1 C1.9 2.32 0.8 3.63 -0.31 4.94 C-0.93 5.67 -1.54 6.4 -2.18 7.15 C-4 9 -4 9 -7 10 C-5.33 6.06 -2.77 3.21 0 0 Z " fill="#A2A3A5" transform="translate(1024,518)"/>
<path d="M0 0 C0.66 0 1.32 0 2 0 C1.47 4.51 -0.37 7.35 -3 11 C-3.66 10.34 -4.32 9.68 -5 9 C-3.35 6.03 -1.7 3.06 0 0 Z " fill="#999A9B" transform="translate(672,418)"/>
<path d="M0 0 C0.33 0.99 0.66 1.98 1 3 C-1.97 4.9 -4.51 6.35 -8 7 C-6.87 3.71 -6.01 3 -2.88 1.25 C-1.93 0.84 -0.98 0.42 0 0 Z " fill="#616263" transform="translate(448,543)"/>
<path d="M0 0 C0 3.3 0 6.6 0 10 C-0.99 9.67 -1.98 9.34 -3 9 C-3 6.36 -3 3.72 -3 1 C-1 0 -1 0 0 0 Z " fill="#737475" transform="translate(408,506)"/>
<path d="M0 0 C0.33 0.99 0.66 1.98 1 3 C-0.29 3.86 -1.58 4.72 -2.88 5.56 C-3.59 6.04 -4.31 6.51 -5.05 7 C-5.7 7.33 -6.34 7.66 -7 8 C-7.66 7.67 -8.32 7.34 -9 7 C-8.26 4.61 -7.53 3.29 -5.31 2.07 C-3.56 1.33 -1.78 0.66 0 0 Z " fill="#5C5D5E" transform="translate(274,476)"/>
<path d="M0 0 C4.43 1.39 6.99 3.48 10 7 C10 7.99 10 8.98 10 10 C8 10 8 10 6.31 8.32 C5.69 7.6 5.07 6.87 4.44 6.12 C3.51 5.05 3.51 5.05 2.56 3.95 C1 2 1 2 0 0 Z " fill="#737475" transform="translate(323,393)"/>
<path d="M0 0 C5.94 0 11.88 0 18 0 C18 0.33 18 0.66 18 1 C12.06 1 6.12 1 0 1 C0 0.67 0 0.34 0 0 Z " fill="#737475" transform="translate(603,921)"/>
<path d="M0 0 C5.28 0 10.56 0 16 0 C16 0.33 16 0.66 16 1 C10.72 1 5.44 1 0 1 C0 0.67 0 0.34 0 0 Z " fill="#737475" transform="translate(635,921)"/>
<path d="M0 0 C0.33 0 0.66 0 1 0 C1 3.3 1 6.6 1 10 C0.67 10 0.34 10 0 10 C0 6.7 0 3.4 0 0 Z " fill="#000002" transform="translate(181,501)"/>
<path d="M0 0 C2.97 0 5.94 0 9 0 C9 0.33 9 0.66 9 1 C6.03 1 3.06 1 0 1 C0 0.67 0 0.34 0 0 Z " fill="#000002" transform="translate(676,32)"/>
<path d="M0 0 C1.98 0 3.96 0 6 0 C6 0.33 6 0.66 6 1 C4.02 1 2.04 1 0 1 C0 0.67 0 0.34 0 0 Z " fill="#737475" transform="translate(543,914)"/>
<path d="M0 0 C0.33 0 0.66 0 1 0 C1 1.98 1 3.96 1 6 C0.67 6 0.34 6 0 6 C0 4.02 0 2.04 0 0 Z " fill="#000002" transform="translate(181,445)"/>
<path d="M0 0 C1.98 0 3.96 0 6 0 C6 0.33 6 0.66 6 1 C4.02 1 2.04 1 0 1 C0 0.67 0 0.34 0 0 Z " fill="#000002" transform="translate(656,30)"/>
<path d="M0 0 C1.65 0 3.3 0 5 0 C5 0.33 5 0.66 5 1 C3.35 1 1.7 1 0 1 C0 0.67 0 0.34 0 0 Z " fill="#737475" transform="translate(706,914)"/>
<path d="M0 0 C3 1 3 1 3 1 Z " fill="#737475" transform="translate(717,912)"/>
<path d="" fill="#000002" transform="translate(0,0)"/>
<path d="" fill="#000002" transform="translate(0,0)"/>
<path d="" fill="#000002" transform="translate(0,0)"/>
<path d="" fill="#737475" transform="translate(0,0)"/>
<path d="" fill="#000002" transform="translate(0,0)"/>
<path d="M0 0 C3 1 3 1 3 1 Z " fill="#000002" transform="translate(423,77)"/>
<path d="M0 0 C3 1 3 1 3 1 Z " fill="#000002" transform="translate(488,50)"/>
<path d="M0 0 C3 1 3 1 3 1 Z " fill="#000002" transform="translate(573,32)"/>
<path d="M0 0 C3 1 3 1 3 1 Z " fill="#000002" transform="translate(567,32)"/>
<path d="M0 0 C3 1 3 1 3 1 Z " fill="#000002" transform="translate(592,30)"/>
<path d="M0 0 C2 1 2 1 2 1 Z " fill="#737475" transform="translate(534,912)"/>
<path d="M0 0 C2 1 2 1 2 1 Z " fill="#737475" transform="translate(726,910)"/>
<path d="" fill="#393A3B" transform="translate(0,0)"/>
<path d="" fill="#000002" transform="translate(0,0)"/>
<path d="" fill="#000002" transform="translate(0,0)"/>
<path d="" fill="#000002" transform="translate(0,0)"/>
<path d="" fill="#000002" transform="translate(0,0)"/>
<path d="" fill="#000002" transform="translate(0,0)"/>
<path d="" fill="#000002" transform="translate(0,0)"/>
<path d="" fill="#000002" transform="translate(0,0)"/>
<path d="" fill="#000002" transform="translate(0,0)"/>
<path d="" fill="#000002" transform="translate(0,0)"/>
<path d="M0 0 C2 1 2 1 2 1 Z " fill="#000002" transform="translate(301,170)"/>
<path d="" fill="#000002" transform="translate(0,0)"/>
<path d="M0 0 C2 1 2 1 2 1 Z " fill="#000002" transform="translate(357,119)"/>
<path d="M0 0 C2 1 2 1 2 1 Z " fill="#000002" transform="translate(390,96)"/>
<path d="M0 0 C2 1 2 1 2 1 Z " fill="#000002" transform="translate(437,70)"/>
<path d="" fill="#000002" transform="translate(0,0)"/>
<path d="" fill="#000002" transform="translate(0,0)"/>
<path d="M0 0 C2 1 2 1 2 1 Z " fill="#000002" transform="translate(479,54)"/>
<path d="" fill="#737475" transform="translate(0,0)"/>
<path d="" fill="#000002" transform="translate(0,0)"/>
<path d="" fill="#737475" transform="translate(0,0)"/>
<path d="" fill="#737475" transform="translate(0,0)"/>
<path d="" fill="#737475" transform="translate(0,0)"/>
<path d="" fill="#737475" transform="translate(0,0)"/>
<path d="" fill="#737475" transform="translate(0,0)"/>
<path d="" fill="#737475" transform="translate(0,0)"/>
<path d="" fill="#737475" transform="translate(0,0)"/>
<path d="" fill="#737475" transform="translate(0,0)"/>
<path d="" fill="#737475" transform="translate(0,0)"/>
<path d="" fill="#737475" transform="translate(0,0)"/>
<path d="" fill="#737475" transform="translate(0,0)"/>
<path d="" fill="#000002" transform="translate(0,0)"/>
<path d="" fill="#737475" transform="translate(0,0)"/>
<path d="" fill="#000002" transform="translate(0,0)"/>
<path d="" fill="#000002" transform="translate(0,0)"/>
<path d="" fill="#000002" transform="translate(0,0)"/>
<path d="" fill="#000002" transform="translate(0,0)"/>
<path d="" fill="#000002" transform="translate(0,0)"/>
<path d="" fill="#000002" transform="translate(0,0)"/>
<path d="" fill="#000002" transform="translate(0,0)"/>
<path d="" fill="#000002" transform="translate(0,0)"/>
<path d="" fill="#000002" transform="translate(0,0)"/>
<path d="" fill="#000002" transform="translate(0,0)"/>
<path d="" fill="#000002" transform="translate(0,0)"/>
<path d="" fill="#000002" transform="translate(0,0)"/>
<path d="" fill="#000002" transform="translate(0,0)"/>
<path d="" fill="#000002" transform="translate(0,0)"/>
<path d="" fill="#000002" transform="translate(0,0)"/>
<path d="" fill="#000002" transform="translate(0,0)"/>
<path d="" fill="#000002" transform="translate(0,0)"/>
<path d="" fill="#000002" transform="translate(0,0)"/>
<path d="" fill="#000002" transform="translate(0,0)"/>
<path d="" fill="#000002" transform="translate(0,0)"/>
<path d="" fill="#000002" transform="translate(0,0)"/>
<path d="" fill="#F4F5F7" transform="translate(0,0)"/>
<path d="" fill="#000002" transform="translate(0,0)"/>
<path d="" fill="#000002" transform="translate(0,0)"/>
<path d="" fill="#000002" transform="translate(0,0)"/>
<path d="" fill="#000002" transform="translate(0,0)"/>
<path d="" fill="#737475" transform="translate(0,0)"/>
<path d="" fill="#000002" transform="translate(0,0)"/>
<path d="" fill="#000002" transform="translate(0,0)"/>
<path d="" fill="#000002" transform="translate(0,0)"/>
<path d="" fill="#000002" transform="translate(0,0)"/>
<path d="" fill="#000002" transform="translate(0,0)"/>
<path d="" fill="#000002" transform="translate(0,0)"/>
<path d="" fill="#000002" transform="translate(0,0)"/>
<path d="" fill="#000002" transform="translate(0,0)"/>
<path d="" fill="#000002" transform="translate(0,0)"/>
<path d="" fill="#000002" transform="translate(0,0)"/>
<path d="" fill="#000002" transform="translate(0,0)"/>
<path d="" fill="#000002" transform="translate(0,0)"/>
<path d="" fill="#000002" transform="translate(0,0)"/>
<path d="" fill="#000002" transform="translate(0,0)"/>
<path d="" fill="#000002" transform="translate(0,0)"/>
<path d="" fill="#000002" transform="translate(0,0)"/>
<path d="" fill="#000002" transform="translate(0,0)"/>
<path d="" fill="#000002" transform="translate(0,0)"/>
<path d="" fill="#000002" transform="translate(0,0)"/>
<path d="" fill="#000002" transform="translate(0,0)"/>
<path d="" fill="#000002" transform="translate(0,0)"/>
<path d="" fill="#000002" transform="translate(0,0)"/>
<path d="" fill="#000002" transform="translate(0,0)"/>
<path d="" fill="#000002" transform="translate(0,0)"/>
<path d="" fill="#000002" transform="translate(0,0)"/>
<path d="" fill="#000002" transform="translate(0,0)"/>
<path d="" fill="#000002" transform="translate(0,0)"/>
<path d="" fill="#000002" transform="translate(0,0)"/>
<path d="" fill="#000002" transform="translate(0,0)"/>
<path d="" fill="#000002" transform="translate(0,0)"/>
<path d="" fill="#000002" transform="translate(0,0)"/>
<path d="" fill="#000002" transform="translate(0,0)"/>
<path d="" fill="#000002" transform="translate(0,0)"/>
<path d="" fill="#000002" transform="translate(0,0)"/>
<path d="" fill="#000002" transform="translate(0,0)"/>
<path d="" fill="#000002" transform="translate(0,0)"/>
<path d="" fill="#000002" transform="translate(0,0)"/>
<path d="" fill="#000002" transform="translate(0,0)"/>
<path d="" fill="#000002" transform="translate(0,0)"/>
<path d="" fill="#000002" transform="translate(0,0)"/>
<path d="" fill="#000002" transform="translate(0,0)"/>
<path d="" fill="#000002" transform="translate(0,0)"/>
<path d="" fill="#000002" transform="translate(0,0)"/>
<path d="" fill="#000002" transform="translate(0,0)"/>
<path d="" fill="#000002" transform="translate(0,0)"/>
<path d="" fill="#000002" transform="translate(0,0)"/>
<path d="" fill="#000002" transform="translate(0,0)"/>
<path d="" fill="#000002" transform="translate(0,0)"/>
<path d="" fill="#000002" transform="translate(0,0)"/>
<path d="" fill="#000002" transform="translate(0,0)"/>
</svg>
